<svg width="80" height="60" viewBox="0 0 80 60" fill="none" xmlns="http://www.w3.org/2000/svg">
<path d="M66.6657 0H13.3343C11.5834 0 9.84968 0.369468 8.23206 1.08731C6.61445 1.80515 5.14465 2.8573 3.90658 4.1837C1.40618 6.86247 0.00147876 10.4957 0.00147876 14.284V45.109C-0.0390888 48.0767 0.755869 50.9887 2.28271 53.4653C3.80956 55.9419 5.99745 57.8682 8.56116 58.9931C10.9786 60.04 13.6364 60.2728 16.1804 59.6603C18.7244 59.0478 21.0337 57.6192 22.8006 55.5649L34.0802 42.8521H45.9198L57.1994 55.5649C58.9641 57.6227 61.2735 59.0537 63.8183 59.6663C66.3632 60.279 69.022 60.0441 71.4389 58.9931C74.0026 57.8682 76.1904 55.9419 77.7173 53.4653C79.2441 50.9887 80.0391 48.0767 79.9985 45.109V14.284C79.9985 10.4957 78.5938 6.86247 76.0934 4.1837C73.593 1.50492 70.2018 0 66.6657 0ZM29.3337 25.7113H24.0006V31.4249C24.0006 32.1826 23.7197 32.9092 23.2196 33.445C22.7195 33.9807 22.0412 34.2817 21.334 34.2817C20.6268 34.2817 19.9486 33.9807 19.4485 33.445C18.9484 32.9092 18.6675 32.1826 18.6675 31.4249V25.7113H13.3343C12.6271 25.7113 11.9489 25.4103 11.4488 24.8745C10.9487 24.3388 10.6678 23.6121 10.6678 22.8545C10.6678 22.0968 10.9487 21.3701 11.4488 20.8344C11.9489 20.2986 12.6271 19.9977 13.3343 19.9977H18.6675V14.284C18.6675 13.5264 18.9484 12.7997 19.4485 12.264C19.9486 11.7282 20.6268 11.4272 21.334 11.4272C22.0412 11.4272 22.7195 11.7282 23.2196 12.264C23.7197 12.7997 24.0006 13.5264 24.0006 14.284V19.9977H29.3337C30.0409 19.9977 30.7192 20.2986 31.2193 20.8344C31.7194 21.3701 32.0003 22.0968 32.0003 22.8545C32.0003 23.6121 31.7194 24.3388 31.2193 24.8745C30.7192 25.4103 30.0409 25.7113 29.3337 25.7113ZM58.666 34.2817C56.5564 34.2817 54.4942 33.6115 52.7401 32.3559C50.9861 31.1002 49.6189 29.3155 48.8116 27.2275C48.0043 25.1394 47.7931 22.8418 48.2047 20.6251C48.6162 18.4085 49.6321 16.3723 51.1238 14.7742C52.6155 13.1761 54.516 12.0877 56.5851 11.6468C58.6542 11.2059 60.7988 11.4322 62.7478 12.2971C64.6968 13.162 66.3626 14.6266 67.5347 16.5058C68.7067 18.385 69.3323 20.5944 69.3323 22.8545C69.3323 25.8852 68.2085 28.7917 66.2082 30.9347C64.2079 33.0778 61.4949 34.2817 58.666 34.2817ZM63.9991 22.8545C63.9991 23.9845 63.6863 25.0892 63.1003 26.0288C62.5143 26.9684 61.6814 27.7007 60.7069 28.1332C59.7324 28.5656 58.6601 28.6788 57.6255 28.4583C56.591 28.2378 55.6407 27.6937 54.8949 26.8946C54.149 26.0955 53.6411 25.0775 53.4353 23.9691C53.2295 22.8608 53.3352 21.712 53.7388 20.668C54.1425 19.6239 54.826 18.7316 55.703 18.1038C56.5801 17.4759 57.6112 17.1408 58.666 17.1408C60.0804 17.1408 61.4369 17.7428 62.4371 18.8143C63.4372 19.8858 63.9991 21.3391 63.9991 22.8545Z" fill="#2284E6"/>
</svg>
