<svg width="300" height="80" viewBox="0 0 300 80" fill="none" xmlns="http://www.w3.org/2000/svg">
<g clip-path="url(#clip0_482_3319)">
<g clip-path="url(#clip1_482_3319)">
<path d="M19.0085 54.9435V40.4956H23.0689V58.6395C22.734 58.7888 22.2541 58.9568 21.629 59.1435C20.9983 59.3302 20.2727 59.5168 19.4522 59.7035C18.6262 59.8902 17.7248 60.0507 16.7481 60.1851C15.7714 60.312 14.7807 60.3755 13.7761 60.3755C11.7389 60.3755 9.88309 59.9275 8.2087 59.0315C6.53431 58.1355 5.09712 56.8288 3.89714 55.1115C2.69716 53.3942 1.77066 51.2849 1.11765 48.7836C0.459058 46.2822 0.129761 43.4076 0.129761 40.1596C0.129761 36.9116 0.500918 34.0258 1.24323 31.502C1.97996 28.9858 2.97623 26.869 4.23202 25.1517C5.48781 23.4343 6.96128 22.1277 8.65242 21.2317C10.338 20.3357 12.1435 19.8877 14.0691 19.8877C15.3807 19.8877 16.5472 19.9997 17.5686 20.2237C18.5843 20.4477 19.455 20.709 20.1806 21.0077C20.9062 21.3064 21.5006 21.605 21.9638 21.9037C22.4215 22.2023 22.7341 22.4264 22.9015 22.5757L21.6038 27.1117C20.7945 26.4023 19.7201 25.8125 18.3806 25.3421C17.0411 24.8791 15.6737 24.6477 14.2784 24.6477C12.7993 24.6477 11.4542 25.0023 10.2431 25.7117C9.02636 26.421 7.99382 27.4477 7.14546 28.7917C6.29152 30.1356 5.62735 31.7671 5.15294 33.686C4.67852 35.6124 4.44132 37.7703 4.44132 40.1596C4.44132 42.4743 4.64504 44.5836 5.05247 46.4876C5.45433 48.3916 6.06827 50.023 6.8943 51.3819C7.71476 52.7483 8.73334 53.8049 9.95007 54.5515C11.1612 55.2982 12.59 55.6715 14.2365 55.6715C15.4086 55.6715 16.4076 55.5857 17.2337 55.4139C18.0541 55.2497 18.6457 55.0929 19.0085 54.9435ZM36.5478 55.8395C37.4687 55.8395 38.2836 55.8097 38.9924 55.7499C39.7068 55.6977 40.3012 55.5969 40.7756 55.4475V46.7676C40.4966 46.5809 40.0417 46.4204 39.411 46.286C38.7859 46.159 38.0268 46.0956 37.1338 46.0956C36.5478 46.0956 35.9255 46.1516 35.2669 46.2636C34.6139 46.3756 34.0139 46.607 33.4669 46.958C32.9255 47.3164 32.4734 47.8017 32.1106 48.414C31.7479 49.0337 31.5665 49.8476 31.5665 50.8555C31.5665 52.7222 32.013 54.0177 32.906 54.7419C33.799 55.4737 35.0129 55.8395 36.5478 55.8395ZM36.2129 29.7436C37.7757 29.7436 39.0929 30.0124 40.1645 30.55C41.2417 31.0951 42.1068 31.8604 42.7598 32.846C43.4184 33.8391 43.8872 35.0151 44.1663 36.374C44.4453 37.7404 44.5849 39.2449 44.5849 40.8876V59.0875C44.25 59.1622 43.7812 59.263 43.1784 59.3899C42.5812 59.5243 41.9058 59.6475 41.1524 59.7595C40.3989 59.8715 39.5812 59.976 38.6994 60.0731C37.8231 60.1627 36.9524 60.2075 36.0873 60.2075C34.8594 60.2075 33.7292 60.0395 32.6967 59.7035C31.6641 59.3675 30.7711 58.8336 30.0177 58.1019C29.2642 57.3776 28.6781 56.4182 28.2595 55.2235C27.8409 54.0289 27.6316 52.5915 27.6316 50.9115C27.6316 49.3062 27.8744 47.9249 28.36 46.7676C28.8512 45.6102 29.5153 44.6769 30.3525 43.9676C31.1897 43.2582 32.1665 42.7356 33.2827 42.3996C34.399 42.0636 35.5711 41.8956 36.7989 41.8956C37.1896 41.8956 37.5943 41.9217 38.0129 41.974C38.4315 42.0337 38.8277 42.1084 39.2017 42.198C39.5812 42.2951 39.9105 42.3809 40.1896 42.4556C40.4686 42.5303 40.664 42.5863 40.7756 42.6236V41.1676C40.7756 40.3089 40.7059 39.4577 40.5663 38.614C40.4268 37.7777 40.1756 37.0311 39.8128 36.374C39.4501 35.7244 38.9533 35.2018 38.3226 34.806C37.6975 34.4178 36.8827 34.2236 35.878 34.2236C34.5943 34.2236 33.4697 34.3431 32.5041 34.582C31.5441 34.8284 30.8269 35.0823 30.3525 35.3436L29.8921 31.0316C30.3944 30.733 31.2316 30.4418 32.4037 30.158C33.5757 29.8818 34.8455 29.7436 36.2129 29.7436ZM51.0313 59.5915V31.3116C51.9243 31.013 53.1019 30.6956 54.5642 30.3596C56.0321 30.0236 57.7288 29.8556 59.6544 29.8556C61.0497 29.8556 62.2218 30.1058 63.1706 30.606C64.1194 31.1138 64.9148 31.853 65.5566 32.8236C65.752 32.637 66.0589 32.3756 66.4775 32.0396C66.8961 31.7036 67.4124 31.3751 68.0263 31.054C68.6403 30.7404 69.324 30.4604 70.0775 30.214C70.8309 29.9751 71.6402 29.8556 72.5053 29.8556C74.1741 29.8556 75.5416 30.1804 76.6076 30.83C77.6681 31.4871 78.4969 32.413 79.0941 33.6076C79.6969 34.8023 80.1015 36.2209 80.308 37.8636C80.5201 39.5063 80.6261 41.2983 80.6261 43.2396V59.5915H76.7332V44.3596C76.7332 42.6423 76.669 41.1676 76.5406 39.9356C76.4178 38.7036 76.1806 37.6769 75.829 36.8556C75.483 36.0343 75.0086 35.4258 74.4058 35.03C73.8086 34.6418 73.0356 34.4476 72.0867 34.4476C70.7751 34.4476 69.6924 34.6791 68.8384 35.142C67.9901 35.6124 67.4124 36.0343 67.1054 36.4076C67.3287 37.3783 67.4961 38.4423 67.6077 39.5996C67.7194 40.7569 67.7752 41.9703 67.7752 43.2396V59.5915H63.8822V44.3596C63.8822 42.6423 63.8125 41.1676 63.6729 39.9356C63.5334 38.7036 63.2878 37.6769 62.9362 36.8556C62.5902 36.0343 62.1157 35.4258 61.513 35.03C60.9158 34.6418 60.1567 34.4476 59.2358 34.4476C58.8451 34.4476 58.4265 34.4663 57.98 34.5036C57.5335 34.541 57.1065 34.5858 56.6991 34.638C56.2972 34.6978 55.9289 34.765 55.594 34.8396C55.2591 34.9143 55.0359 34.9703 54.9242 35.0076V59.5915H51.0313ZM85.8502 45.0876C85.8502 42.5116 86.1293 40.2604 86.6874 38.334C87.2456 36.4151 87.9851 34.821 88.906 33.5516C89.8269 32.2823 90.8874 31.3303 92.0873 30.6956C93.2873 30.061 94.5152 29.7436 95.771 29.7436C98.7012 29.7436 100.948 30.9644 102.51 33.406C104.073 35.8551 104.855 39.5809 104.855 44.5836C104.855 44.8076 104.855 45.095 104.855 45.446C104.855 45.8044 104.841 46.1329 104.813 46.4316H89.9106C90.0781 49.4556 90.7339 51.7515 91.8781 53.3195C93.0222 54.8875 94.8082 55.6715 97.2361 55.6715C98.6035 55.6715 99.7561 55.511 100.694 55.1899C101.626 54.8763 102.329 54.5702 102.803 54.2715L103.348 58.6395C102.873 58.9755 102.044 59.3302 100.861 59.7035C99.6723 60.0768 98.3245 60.2635 96.8175 60.2635C94.9199 60.2635 93.2818 59.879 91.9032 59.1099C90.519 58.3483 89.3804 57.2955 88.4874 55.9515C87.5944 54.6075 86.933 53.0097 86.5033 51.1579C86.0679 49.3137 85.8502 47.2902 85.8502 45.0876ZM89.9944 42.2316H100.794C100.822 39.8796 100.384 37.9457 99.4798 36.43C98.57 34.9218 97.3198 34.1676 95.7292 34.1676C94.8361 34.1676 94.0492 34.3991 93.3683 34.862C92.6818 35.3324 92.1013 35.941 91.6269 36.6876C91.1525 37.4343 90.7841 38.2929 90.5218 39.2636C90.2539 40.2343 90.0781 41.2236 89.9944 42.2316ZM126.998 54.2155H123.733C123.454 53.3195 123.086 52.1809 122.628 50.7995C122.165 49.4182 121.668 47.9249 121.138 46.3196C120.608 44.7142 120.041 43.0604 119.439 41.358C118.841 39.6631 118.278 38.0577 117.747 36.542C117.217 35.0338 116.723 33.6823 116.266 32.4876C115.802 31.293 115.431 30.3783 115.152 29.7436C114.845 34.149 114.594 38.9164 114.399 44.046C114.203 49.183 114.036 54.3649 113.896 59.5915H109.92C110.031 56.2315 110.157 52.8417 110.296 49.422C110.436 46.0097 110.595 42.6535 110.774 39.3532C110.958 36.0455 111.153 32.8236 111.36 29.6876C111.572 26.5517 111.803 23.5837 112.054 20.7837H115.613C116.366 22.4263 117.175 24.3677 118.04 26.6077C118.906 28.8477 119.771 31.1884 120.636 33.63C121.501 36.0791 122.338 38.5244 123.147 40.966C123.957 43.415 124.696 45.6476 125.366 47.6636C126.036 45.6476 126.775 43.415 127.584 40.966C128.394 38.5244 129.231 36.0791 130.096 33.63C130.961 31.1884 131.826 28.8477 132.691 26.6077C133.556 24.3677 134.366 22.4263 135.119 20.7837H138.677C139.626 33.2903 140.338 46.2262 140.812 59.5915H136.835C136.696 54.3649 136.529 49.183 136.333 44.046C136.138 38.9164 135.887 34.149 135.58 29.7436C135.301 30.3783 134.932 31.293 134.475 32.4876C134.011 33.6823 133.515 35.0338 132.984 36.542C132.454 38.0577 131.888 39.6631 131.285 41.358C130.688 43.0604 130.124 44.7142 129.594 46.3196C129.064 47.9249 128.567 49.4182 128.104 50.7995C127.646 52.1809 127.277 53.3195 126.998 54.2155ZM154.291 55.8395C155.212 55.8395 156.027 55.8097 156.736 55.7499C157.45 55.6977 158.044 55.5969 158.519 55.4475V46.7676C158.24 46.5809 157.785 46.4204 157.154 46.286C156.529 46.159 155.77 46.0956 154.877 46.0956C154.291 46.0956 153.669 46.1516 153.01 46.2636C152.357 46.3756 151.757 46.607 151.21 46.958C150.669 47.3164 150.217 47.8017 149.854 48.414C149.491 49.0337 149.31 49.8476 149.31 50.8555C149.31 52.7222 149.756 54.0177 150.649 54.7419C151.542 55.4737 152.756 55.8395 154.291 55.8395ZM153.956 29.7436C155.519 29.7436 156.836 30.0124 157.908 30.55C158.985 31.0951 159.85 31.8604 160.503 32.846C161.162 33.8391 161.63 35.0151 161.91 36.374C162.189 37.7404 162.328 39.2449 162.328 40.8876V59.0875C161.993 59.1622 161.524 59.263 160.922 59.3899C160.324 59.5243 159.649 59.6475 158.896 59.7595C158.142 59.8715 157.324 59.976 156.443 60.0731C155.566 60.1627 154.696 60.2075 153.831 60.2075C152.603 60.2075 151.472 60.0395 150.44 59.7035C149.407 59.3675 148.514 58.8336 147.761 58.1019C147.007 57.3776 146.421 56.4182 146.003 55.2235C145.584 54.0289 145.375 52.5915 145.375 50.9115C145.375 49.3062 145.618 47.9249 146.103 46.7676C146.594 45.6102 147.259 44.6769 148.096 43.9676C148.933 43.2582 149.91 42.7356 151.026 42.3996C152.142 42.0636 153.314 41.8956 154.542 41.8956C154.933 41.8956 155.338 41.9217 155.756 41.974C156.175 42.0337 156.571 42.1084 156.945 42.198C157.324 42.2951 157.654 42.3809 157.933 42.4556C158.212 42.5303 158.407 42.5863 158.519 42.6236V41.1676C158.519 40.3089 158.449 39.4577 158.31 38.614C158.17 37.7777 157.919 37.0311 157.556 36.374C157.193 35.7244 156.697 35.2018 156.066 34.806C155.441 34.4178 154.626 34.2236 153.621 34.2236C152.338 34.2236 151.213 34.3431 150.247 34.582C149.287 34.8284 148.57 35.0823 148.096 35.3436L147.635 31.0316C148.138 30.733 148.975 30.4418 150.147 30.158C151.319 29.8818 152.589 29.7436 153.956 29.7436ZM172.416 21.4557V30.4716H180.654V34.8396H172.416V48.2796C172.416 49.7355 172.5 50.9377 172.667 51.8859C172.829 52.8417 173.08 53.5883 173.421 54.1259C173.756 54.671 174.174 55.0555 174.677 55.2795C175.173 55.5035 175.76 55.6155 176.435 55.6155C177.607 55.6155 178.547 55.4363 179.256 55.0779C179.971 54.727 180.467 54.4769 180.746 54.3275L181.5 58.6395C181.109 58.9008 180.425 59.2294 179.449 59.6251C178.472 60.0134 177.356 60.2075 176.1 60.2075C174.621 60.2075 173.399 59.9536 172.433 59.4459C171.473 58.9456 170.7 58.1915 170.114 57.1835C169.528 56.1755 169.115 54.9323 168.875 53.4539C168.635 51.983 168.515 50.2769 168.515 48.3356V22.3517L172.416 21.4557ZM183.961 45.0876C183.961 42.5116 184.24 40.2604 184.798 38.334C185.357 36.4151 186.096 34.821 187.017 33.5516C187.938 32.2823 188.998 31.3303 190.198 30.6956C191.398 30.061 192.626 29.7436 193.882 29.7436C196.812 29.7436 199.059 30.9644 200.621 33.406C202.184 35.8551 202.966 39.5809 202.966 44.5836C202.966 44.8076 202.966 45.095 202.966 45.446C202.966 45.8044 202.952 46.1329 202.924 46.4316H188.022C188.189 49.4556 188.845 51.7515 189.989 53.3195C191.133 54.8875 192.919 55.6715 195.347 55.6715C196.715 55.6715 197.867 55.511 198.805 55.1899C199.737 54.8763 200.44 54.5702 200.914 54.2715L201.459 58.6395C200.984 58.9755 200.155 59.3302 198.972 59.7035C197.783 60.0768 196.435 60.2635 194.928 60.2635C193.031 60.2635 191.393 59.879 190.014 59.1099C188.63 58.3483 187.491 57.2955 186.598 55.9515C185.705 54.6075 185.044 53.0097 184.614 51.1579C184.179 49.3137 183.961 47.2902 183.961 45.0876ZM188.105 42.2316H198.905C198.933 39.8796 198.495 37.9457 197.591 36.43C196.681 34.9218 195.431 34.1676 193.84 34.1676C192.947 34.1676 192.16 34.3991 191.479 34.862C190.793 35.3324 190.212 35.941 189.738 36.6876C189.263 37.4343 188.895 38.2929 188.633 39.2636C188.365 40.2343 188.189 41.2236 188.105 42.2316Z" fill="#E6F5FF"/>
</g>
<g clip-path="url(#clip2_482_3319)">
<path d="M263.541 21.0751C261.93 6.57426 251.018 0 237.906 0H237.127C223.4 0 210.811 10.8321 210.056 26.7957H213.652C214.845 13.6113 225.681 5.18202 237.178 5.18202H237.853C248.761 5.18202 257.929 9.50369 259.862 21.2015L219.429 22.5937V76.5853L299.515 80.2634V19.8358L263.541 21.0751ZM295.047 77.2529L223.897 73.5721V25.6069L295.047 22.8477V77.2529Z" fill="#2284E6"/>
<path d="M258.826 68.2956C258.792 69.6932 257.919 70.7916 256.873 70.745L251.037 70.4937C249.993 70.4472 249.174 69.2783 249.207 67.8807C249.24 66.4832 250.115 65.3848 251.161 65.4314L256.995 65.6827C258.041 65.7292 258.861 66.8981 258.826 68.2956Z" fill="#2284E6"/>
<path d="M269.735 68.7677C269.701 70.1652 268.827 71.2636 267.782 71.217L261.946 70.9657C260.902 70.9192 260.082 69.7503 260.115 68.3528C260.149 66.9552 261.024 65.8595 262.07 65.9034L267.904 66.1574C268.949 66.2012 269.769 67.3701 269.735 68.7677Z" fill="#2284E6"/>
<path d="M289.583 35.2077C288.087 31.6214 284.703 30.3355 282.022 32.3368C279.341 34.3367 278.379 38.8659 279.875 42.4535C281.371 46.0398 284.756 47.3257 287.436 45.3231C290.117 43.3232 291.078 38.7954 289.583 35.2077ZM284.729 35.5694C284.835 34.8194 284.919 34.0562 284.985 33.2836C286.435 33.757 287.74 34.9976 288.526 36.8779C288.788 37.5069 288.969 38.1638 289.084 38.83C287.895 37.1531 286.366 36.0428 284.729 35.5694Z" fill="#2284E6"/>
<path d="M287.119 52.731C286.004 50.0555 283.479 49.0981 281.479 50.5914C279.479 52.0821 278.763 55.4583 279.879 58.1364C280.993 60.8119 283.519 61.7693 285.518 60.276C287.518 58.784 288.234 55.4051 287.119 52.731ZM283.842 52.86C283.911 52.372 283.966 51.8786 284.009 51.3773C284.948 51.6832 285.794 52.489 286.303 53.707C286.473 54.1153 286.59 54.5408 286.665 54.9716C285.894 53.8865 284.904 53.1672 283.842 52.86Z" fill="#2284E6"/>
<path d="M277.472 46.5758C276.242 43.6224 273.456 42.5653 271.25 44.2128C269.042 45.859 268.252 49.5863 269.484 52.537C270.714 55.4904 273.499 56.5475 275.706 54.9C277.913 53.2551 278.703 49.5278 277.472 46.5758ZM273.619 46.7234C273.704 46.121 273.772 45.5106 273.824 44.8923C274.986 45.2713 276.032 46.2633 276.661 47.7725C276.871 48.2765 277.016 48.8004 277.109 49.3363C276.155 47.9906 274.932 47.1023 273.619 46.7234Z" fill="#2284E6"/>
<path d="M239.721 44.5158L239.902 36.9216L233.559 37.7301L233.474 45.0663L227.98 45.549V53.6312L233.378 53.4025L233.294 60.74H239.335L239.516 53.1459L244.915 52.9198L245.218 44.0291L239.721 44.5158ZM239.078 42.3882L238.113 43.4347L238.212 39.2527L236.224 39.5053L237.419 38.2088L239.182 37.9841L239.078 42.3882Z" fill="#2284E6"/>
</g>
</g>
<defs>
<clipPath id="clip0_482_3319">
<rect width="299.394" height="80.2634" fill="white" transform="translate(0.121399)"/>
</clipPath>
<clipPath id="clip1_482_3319">
<rect width="202.853" height="40.4878" fill="white" transform="translate(0.121399 19.8877)"/>
</clipPath>
<clipPath id="clip2_482_3319">
<rect width="89.4586" height="80.2634" fill="white" transform="translate(210.056)"/>
</clipPath>
</defs>
</svg>
