<svg width="80" height="60" viewBox="0 0 80 60" fill="none" xmlns="http://www.w3.org/2000/svg">
<path fill-rule="evenodd" clip-rule="evenodd" d="M27.3801 0.0221214C27.2403 0.0319184 27.1034 0.0622475 26.9751 0.111771L0.755936 10.0677C0.553652 10.1442 0.378096 10.2663 0.247065 10.4212C0.116034 10.5762 0.034187 10.7586 0.00982101 10.9501C-0.014545 11.1416 0.0194365 11.3354 0.108321 11.5117C0.197205 11.6881 0.337831 11.8406 0.515944 11.9541L11.7656 19.1058L0.515944 26.2554C0.33721 26.3688 0.196018 26.5217 0.106734 26.6983C0.0174494 26.8749 -0.0167396 27.0689 0.00764557 27.2608C0.0320307 27.4527 0.11412 27.6355 0.245559 27.7907C0.376999 27.9458 0.553097 28.0676 0.755936 28.1439L12.5031 32.6029V48.6223C12.5019 48.7068 12.512 48.7911 12.5331 48.8736C12.4672 49.126 12.5059 49.3907 12.6423 49.6204C12.7787 49.8502 13.004 50.0301 13.278 50.1282L39.4847 59.9096C39.5353 59.9264 39.587 59.9401 39.6397 59.951C39.6513 59.9511 39.663 59.9511 39.6747 59.951C39.6911 59.9586 39.7078 59.9659 39.7247 59.9729C39.7568 59.9813 39.7893 59.9886 39.8222 59.9947C39.8305 59.9948 39.8388 59.9948 39.8472 59.9947C39.8497 59.9947 39.8522 59.9947 39.8547 59.9947C39.9361 60.0018 40.0182 60.0018 40.0997 59.9947C40.1358 59.9888 40.1717 59.9815 40.2071 59.9729C40.2138 59.9729 40.2205 59.9729 40.2271 59.9729C40.2363 59.9729 40.2455 59.9729 40.2546 59.9729C40.2866 59.9667 40.3183 59.9594 40.3496 59.951C40.3886 59.941 40.427 59.9293 40.4646 59.916C40.4815 59.9091 40.4982 59.9018 40.5146 59.8941L66.7238 50.113C66.9997 50.0155 67.2269 49.8352 67.3644 49.6044C67.5019 49.3736 67.5406 49.1074 67.4738 48.8539C67.4928 48.7726 67.5012 48.6899 67.4988 48.6071V32.4959L79.2484 28.0348C79.4501 27.9581 79.6251 27.8363 79.7557 27.6815C79.8864 27.5268 79.968 27.3446 79.9923 27.1535C80.0167 26.9624 79.9829 26.769 79.8944 26.5929C79.8059 26.4168 79.6659 26.2641 79.4884 26.1505L67.8037 18.7235C67.8005 18.7162 67.7972 18.7088 67.7937 18.7016C67.7905 18.6943 67.7872 18.687 67.7837 18.6797L78.3309 11.976C78.509 11.8625 78.6496 11.7099 78.7385 11.5336C78.8274 11.3573 78.8614 11.1635 78.837 10.972C78.8127 10.7804 78.7308 10.5981 78.5998 10.4431C78.4688 10.2882 78.2932 10.1661 78.0909 10.0896L51.8768 0.135785C51.7232 0.0761158 51.5574 0.0442176 51.3893 0.0418658C51.12 0.039337 50.8569 0.112819 50.6393 0.251583L39.4547 7.36194L28.205 0.212227C27.967 0.0592528 27.6748 -0.0149703 27.3801 0.0025105V0.0221214ZM27.3176 2.37183L37.5272 8.86358L13.8305 17.7224L3.75584 11.318L27.3176 2.37183ZM51.5343 2.40665L75.0935 11.353L65.4788 17.4622L41.7846 8.60344L51.5343 2.40665ZM40.0022 10.3169L63.4489 19.0839L39.9997 27.8534L32.4524 25.0337L22.7602 21.4119L16.5404 19.0839L40.0022 10.3169ZM66.2113 20.4348L76.246 26.8128L52.6867 35.7591L42.5121 29.2915L66.2113 20.4348ZM13.8855 20.4698L21.7803 23.4205L31.4724 27.0425L37.5747 29.3264L27.3176 35.8509L3.75834 26.9024L13.8855 20.4698ZM41.2521 31.1931L51.7993 37.8947C51.9747 38.0064 52.1804 38.0761 52.396 38.0972C52.6117 38.1183 52.8299 38.0898 53.0292 38.0148L65.0013 33.4685V48.4016L41.2521 57.2647V31.1931ZM38.7522 31.2785V57.2647L15.003 48.4016V33.5581L26.9751 38.1044C27.1744 38.1794 27.3926 38.2079 27.6083 38.1869C27.8239 38.1658 28.0296 38.096 28.205 37.9843L38.7522 31.2785ZM51.1868 43.3852C51.1826 43.3852 51.1785 43.3852 51.1743 43.3852C51.0206 43.3923 50.8698 43.4241 50.7293 43.4791L44.0795 45.9645C43.9285 46.0211 43.7917 46.103 43.6769 46.2057C43.5622 46.3085 43.4717 46.4302 43.4106 46.5635C43.3496 46.6969 43.3192 46.8393 43.3211 46.983C43.3231 47.1266 43.3574 47.2685 43.422 47.4005C43.4867 47.5326 43.5805 47.6521 43.698 47.7524C43.8156 47.8528 43.9546 47.932 44.1071 47.9854C44.2596 48.0388 44.4227 48.0653 44.5869 48.0636C44.7512 48.0618 44.9135 48.0318 45.0645 47.9752L51.7093 45.4901C51.9861 45.3956 52.2153 45.218 52.3559 44.989C52.4964 44.7601 52.5391 44.4948 52.4761 44.2409C52.4132 43.9869 52.2489 43.7608 52.0126 43.6032C51.7763 43.4456 51.4835 43.3669 51.1868 43.3809V43.3852ZM57.8341 44.8759C57.8291 44.8759 57.8241 44.8759 57.8191 44.8759C57.6654 44.883 57.5145 44.9148 57.3741 44.9698L50.7293 47.4528L44.0795 49.9382C43.9215 49.9903 43.7771 50.0697 43.6552 50.1719C43.5332 50.2741 43.4363 50.3968 43.3701 50.5327C43.3039 50.6685 43.2699 50.8148 43.2702 50.9625C43.2704 51.1102 43.3049 51.2561 43.3715 51.3918C43.4381 51.5275 43.5355 51.6501 43.6577 51.752C43.78 51.8539 43.9246 51.933 44.0829 51.9847C44.2411 52.0363 44.4096 52.0593 44.5784 52.0524C44.7471 52.0456 44.9124 52.009 45.0645 51.9447L51.7093 49.4638L58.3566 46.9787C58.6318 46.883 58.8592 46.7049 58.9983 46.4763C59.1375 46.2477 59.1792 45.9835 59.1162 45.7305C59.0531 45.4775 58.8894 45.2523 58.6541 45.095C58.4189 44.9377 58.1274 44.8585 57.8316 44.8716L57.8341 44.8759Z" fill="#2284E6"/>
</svg>
