<svg width="29" height="24" viewBox="0 0 29 24" fill="none" xmlns="http://www.w3.org/2000/svg">
<path d="M11.0271 0.0121312C10.9717 -0.00474253 10.9138 -0.00400249 10.8588 0.0142822C10.7784 0.0426164 10.7076 0.10202 10.6567 0.18374C10.6058 0.265459 10.5776 0.365171 10.5761 0.468182V3.73153C10.5761 4.37473 10.8518 4.94695 11.2705 5.28039V7.76931C11.3551 9.25255 11.8183 10.2883 12.4638 10.9251C12.3879 11.6608 12.1305 12.0846 11.704 12.475C11.1981 12.9375 10.4636 13.2957 9.68815 13.7044C8.91182 14.1132 8.08839 14.6058 7.45511 15.4716C6.82096 16.3364 6.4136 17.5475 6.4136 19.2943V19.6137L6.62993 19.7213C8.61612 20.784 9.61924 21.3282 10.1208 21.5928C10.3712 21.7251 10.4845 21.7972 10.5552 21.8327C10.5901 21.8499 10.6041 21.8456 10.6424 21.8596C10.6512 21.8596 10.666 21.8822 10.6852 21.8865H10.707C10.7637 21.9144 10.8858 21.979 11.1196 22.1016C11.608 22.3586 12.5763 22.8653 14.5433 23.9193L14.6968 24L14.8486 23.9183C16.0166 23.304 17.1875 22.6981 18.3613 22.1005C18.6064 21.9768 18.7302 21.8897 18.7939 21.8596H18.8166L18.9038 21.8327C18.9335 21.8209 18.9335 21.823 18.9684 21.8069C19.0373 21.7714 19.1777 21.6972 19.4228 21.5659C19.9139 21.3035 20.8935 20.7721 22.8492 19.7213L23.0655 19.6137V19.2943C23.0655 17.5884 22.6538 16.388 22.0248 15.5512C21.3951 14.7144 20.5795 14.2648 19.8127 13.8658C19.0469 13.4678 18.3159 13.1096 17.8178 12.6353C17.3293 12.1696 17.0476 11.6328 17.038 10.6035C17.7114 9.91619 18.179 8.95031 18.2086 7.76931V3.59923C18.2086 2.10631 17.2927 0.870454 16.1282 0.870454H11.9639C11.7258 0.870454 11.5295 0.823128 11.4432 0.762895C11.356 0.704813 11.3359 0.695133 11.3359 0.469258C11.3368 0.25414 11.1937 0.062684 11.0271 0.0121312ZM3.9529 2.61722C3.89572 2.63751 3.84535 2.67994 3.80922 2.73824C3.7731 2.79653 3.75313 2.86761 3.75227 2.94097V5.26855C3.75227 5.72783 3.94766 6.13441 4.24685 6.37426V8.14684C4.30704 9.20415 4.63676 9.94308 5.09646 10.397C5.04238 10.9208 4.86007 11.223 4.55564 11.5016C4.19452 11.8307 3.67028 12.0889 3.11638 12.3804C2.56422 12.6708 1.97805 13.0214 1.5262 13.6388C1.07436 14.2541 0.78302 15.1188 0.78302 16.3644V16.5924L0.938286 16.6677C2.354 17.426 3.06927 17.8143 3.42691 18.0025C3.60573 18.0971 3.6851 18.1499 3.7357 18.1746C3.76099 18.1864 3.77146 18.1853 3.7985 18.194C3.80548 18.194 3.81595 18.209 3.82903 18.2122H3.84473L4.13782 18.366L5.54656 19.1136C5.55187 18.2938 5.66378 17.4803 5.87802 16.7043L6.34731 13.528C6.42494 13.2322 6.2531 13.0806 6.24176 13.0634C6.16503 12.9829 6.10337 12.8828 6.06106 12.7701C6.01874 12.6574 5.99676 12.5347 5.99665 12.4105C5.99184 12.2896 6.007 12.1687 6.04121 12.0552C6.07542 11.9417 6.12797 11.838 6.19567 11.7503C6.26337 11.6626 6.34482 11.5928 6.43506 11.5451C6.5253 11.4974 6.62246 11.4728 6.72065 11.4728C6.81883 11.4728 6.91599 11.4974 7.00624 11.5451C7.09648 11.5928 7.17792 11.6626 7.24562 11.7503C7.31333 11.838 7.36588 11.9417 7.40009 12.0552C7.4343 12.1687 7.44946 12.2896 7.44464 12.4105C7.44482 12.6551 7.36641 12.8899 7.22657 13.0634C7.22657 13.0634 7.04688 13.1709 7.12451 13.528L7.22919 14.2616C7.9148 13.5216 8.68154 13.0645 9.34535 12.7149C9.60093 12.5804 9.819 12.461 10.0458 12.3363C9.61314 12.1115 9.20491 11.891 8.91618 11.6156C8.56727 11.2843 8.36664 10.9014 8.35967 10.1668C8.83942 9.67633 9.17351 8.98795 9.19444 8.14576V5.17175C9.19444 4.10691 8.54023 3.22923 7.70982 3.22923H4.74057C4.57134 3.22923 4.43265 3.19266 4.37072 3.15071C4.30966 3.10876 4.29221 3.10231 4.29221 2.94097C4.29396 2.73661 4.11339 2.56451 3.95377 2.61829L3.9529 2.61722ZM25.4067 2.61722C25.2881 2.65379 25.1851 2.78824 25.1869 2.94097C25.1869 3.10231 25.1694 3.10876 25.1084 3.15071C25.0473 3.19373 24.9077 3.22923 24.7385 3.22923H21.7693C20.9389 3.22923 20.2846 4.10691 20.2846 5.17175V8.14684C20.3056 8.98903 20.6397 9.67741 21.1194 10.1679C21.1124 10.9025 20.9118 11.2854 20.5629 11.6178C20.2428 11.9222 19.7813 12.1599 19.2955 12.4116C19.5615 12.5611 19.8398 12.7106 20.1521 12.8741C20.7941 13.2075 21.5521 13.6281 22.2368 14.3423L22.3546 13.5291C22.4331 13.172 22.2525 13.0644 22.2525 13.0644C22.1127 12.8909 22.0343 12.6562 22.0344 12.4116C22.0296 12.2906 22.0448 12.1698 22.079 12.0563C22.1132 11.9428 22.1658 11.8391 22.2335 11.7514C22.3012 11.6637 22.3826 11.5939 22.4728 11.5462C22.5631 11.4985 22.6603 11.4739 22.7584 11.4739C22.8566 11.4739 22.9538 11.4985 23.044 11.5462C23.1343 11.5939 23.2157 11.6637 23.2834 11.7514C23.3511 11.8391 23.4037 11.9428 23.4379 12.0563C23.4721 12.1698 23.4872 12.2906 23.4824 12.4116C23.4824 12.5357 23.4606 12.6583 23.4184 12.7711C23.3763 12.8838 23.3148 12.9839 23.2382 13.0644C23.226 13.0817 23.055 13.2333 23.1318 13.5291L23.6176 16.8226C23.8078 17.5002 23.9186 18.2671 23.9325 19.1147L25.3413 18.3671L25.6344 18.2133H25.6501C25.6631 18.2101 25.6736 18.195 25.6806 18.195C25.7068 18.1864 25.7181 18.1875 25.7434 18.1757C25.794 18.1509 25.8734 18.0982 26.0522 18.0036C26.4098 17.8153 27.1251 17.4271 28.5408 16.6698L28.6961 16.5945V16.3654C28.6961 15.1188 28.4047 14.2551 27.9529 13.6377C27.501 13.0214 26.9149 12.6708 26.3618 12.3793C25.8088 12.0889 25.2846 11.8307 24.9243 11.5016C24.619 11.223 24.4358 10.9208 24.3826 10.397C24.8423 9.942 25.172 9.20307 25.2322 8.14684V6.37426C25.5314 6.13441 25.7268 5.72891 25.7268 5.26855V2.94097C25.7258 2.8678 25.7057 2.79696 25.6696 2.73888C25.6335 2.6808 25.5832 2.63853 25.5262 2.61829C25.487 2.60562 25.4459 2.60455 25.4067 2.61722ZM14.7395 12.4944C15.3013 12.4944 15.7566 13.0558 15.7566 13.7485C15.7566 14.0906 15.6424 14.4348 15.4478 14.6671C15.4478 14.6671 15.1966 14.8177 15.3048 15.3178L16.1282 20.9894L14.7395 21.8467L13.3788 20.9819L14.2162 15.3178C14.3252 14.9037 14.0853 14.6907 14.0679 14.6671C13.9599 14.5538 13.8731 14.4131 13.8135 14.2545C13.7539 14.0959 13.7228 13.9233 13.7225 13.7485C13.7225 13.0558 14.1778 12.4944 14.7395 12.4944Z" fill="#2284E6"/>
</svg>
