<svg width="29" height="24" viewBox="0 0 29 24" fill="none" xmlns="http://www.w3.org/2000/svg">
<path d="M10.3055 22.5385V18.8583C10.3055 17.9257 11.2339 17.168 12.3839 17.1622H16.6064C17.7615 17.1622 18.6979 17.9215 18.6979 18.8583V22.5278C18.6978 23.3367 19.5026 23.9941 20.5 24H23.3807C24.7262 24.0028 26.0177 23.5713 26.9703 22.8008C27.9229 22.0303 28.4582 20.9841 28.4582 19.893V9.439C28.4582 8.55765 27.9765 7.72164 27.1428 7.15619L17.3561 0.809121C15.6454 -0.301053 13.2021 -0.26519 11.542 0.894459L1.96583 7.15619C1.09278 7.70497 0.570967 8.54346 0.545181 9.439V19.8823C0.545181 22.1564 2.81845 24 5.62267 24H8.43765C8.91788 24.0028 9.37964 23.85 9.72045 23.5757C10.0613 23.3013 10.2529 22.9279 10.2529 22.5385H10.3055Z" fill="#2284E6"/>
</svg>
