<svg width="27" height="24" viewBox="0 0 27 24" fill="none" xmlns="http://www.w3.org/2000/svg">
<path d="M13.3043 11.3384C10.6139 9.32002 7.21391 7.90717 3.42957 7.36103C1.64087 7.11171 0 8.25148 0 9.71181V17.1203C0 19.1149 1.06435 20.1597 2.52783 20.3141C6.22348 20.694 9.57913 21.9169 12.3287 23.7215C12.8461 24.0658 13.6887 24.1014 14.2061 23.769C16.9704 21.9525 20.3557 20.7059 24.0809 20.326C25.4704 20.1716 26.6087 19.0674 26.6087 17.9277V9.71181C26.6087 8.25148 24.9678 7.11171 23.1791 7.36103C19.3948 7.90717 15.9948 9.32002 13.3043 11.3384ZM13.3043 7.12358C15.7583 7.12358 17.7391 5.53265 17.7391 3.56179C17.7391 1.59093 15.7583 0 13.3043 0C10.8504 0 8.86957 1.59093 8.86957 3.56179C8.86957 5.53265 10.8504 7.12358 13.3043 7.12358Z" fill="#2284E6"/>
</svg>
