<svg width="29" height="24" viewBox="0 0 29 24" fill="none" xmlns="http://www.w3.org/2000/svg">
<path d="M23.0963 19.7743V21.0811C20.7602 22.6323 17.8919 23.4738 14.9403 23.4738C11.9888 23.4738 9.12046 22.6323 6.78433 21.0811V19.7743C6.78433 17.9143 7.64362 16.1304 9.17317 14.8152C10.7027 13.5 12.7772 12.7611 14.9403 12.7611C17.1034 12.7611 19.1779 13.5 20.7075 14.8152C22.237 16.1304 23.0963 17.9143 23.0963 19.7743ZM17.8838 5.09583C18.5616 5.67609 18.9843 6.44054 19.0799 7.25884C19.1755 8.07714 18.938 8.89861 18.408 9.58318C17.8779 10.2678 17.0881 10.773 16.1733 11.0129C15.2584 11.2527 14.2751 11.2122 13.3911 10.8984C12.5071 10.5845 11.777 10.0167 11.3254 9.29171C10.8738 8.56674 10.7287 7.72952 10.9147 6.92281C11.1007 6.1161 11.6064 5.38985 12.3455 4.8679C13.0846 4.34595 14.0114 4.06062 14.9679 4.06056C15.5093 4.05924 16.0457 4.15003 16.5461 4.3277C17.0466 4.50538 17.5012 4.76643 17.8838 5.09583Z" fill="#2284E6"/>
<path d="M14.9403 0.526367C22.3098 0.526367 28.2837 5.66322 28.2837 12.0001C28.2857 13.7543 27.819 15.4854 26.9196 17.0599C26.0202 18.6344 24.7121 20.0102 23.0963 21.0812V19.7743C23.0963 17.9143 22.237 16.1305 20.7075 14.8152C19.1779 13.5 17.1034 12.7611 14.9403 12.7611C12.7772 12.7611 10.7027 13.5 9.17316 14.8152C7.64362 16.1305 6.78433 17.9143 6.78433 19.7743V21.0812C5.16855 20.0102 3.86049 18.6344 2.96108 17.0599C2.06167 15.4854 1.59495 13.7543 1.59693 12.0001C1.59693 5.66322 7.57085 0.526367 14.9403 0.526367ZM19.0878 7.60323C19.0858 6.78579 18.7543 5.99422 18.1499 5.3633C17.5455 4.73237 16.7054 4.30109 15.7727 4.14289C14.8401 3.98469 13.8725 4.10935 13.0347 4.49564C12.1969 4.88193 11.5407 5.50597 11.1778 6.26151C10.8149 7.01706 10.7678 7.85739 11.0445 8.63944C11.3212 9.42149 11.9045 10.0969 12.6952 10.5507C13.486 11.0045 14.4351 11.2086 15.3812 11.1282C16.3272 11.0479 17.2116 10.6881 17.8838 10.1101C18.2668 9.78113 18.5704 9.39029 18.777 8.96006C18.9836 8.52982 19.0893 8.0687 19.0878 7.60323Z" fill="#134980"/>
<path d="M14.9403 0C12.5608 0.000779177 10.2209 0.524536 8.14296 1.52154C6.065 2.51855 4.31788 3.95571 3.06749 5.69658C1.81709 7.43746 1.10492 9.42425 0.998596 11.4683C0.892268 13.5124 1.39531 15.546 2.45996 17.3759C3.40332 18.9854 4.75269 20.3935 6.40961 21.4974C8.85296 23.1199 11.8529 24 14.94 24C18.0271 24 21.0271 23.1199 23.4705 21.4974C25.1276 20.3936 26.4772 18.9855 27.4207 17.3759C28.4861 15.546 28.9898 13.5123 28.8839 11.468C28.7779 9.42365 28.0658 7.43654 26.8153 5.69546C25.5647 3.95438 23.8172 2.51715 21.7388 1.52031C19.6605 0.523468 17.3202 0.000125835 14.9403 0ZM7.39641 20.8188V19.7743C7.39641 18.0538 8.19121 16.4039 9.60597 15.1874C11.0207 13.9708 12.9395 13.2874 14.9403 13.2874C16.9411 13.2874 18.8599 13.9708 20.2747 15.1874C21.6894 16.4039 22.4842 18.0538 22.4842 19.7743V20.8188C20.2977 22.2016 17.6545 22.9474 14.9403 22.9474C12.2261 22.9474 9.58293 22.2016 7.39641 20.8188ZM23.7084 19.9373V19.7742C23.7084 15.6169 19.775 12.2347 14.9403 12.2347C12.6149 12.2348 10.3847 13.0291 8.74043 14.4431C7.09612 15.857 6.17232 17.7747 6.17224 19.7743V19.9374C4.91561 18.9177 3.91555 17.6872 3.23387 16.3219C2.5522 14.9567 2.20339 13.4858 2.20901 12C2.20901 5.96365 7.92029 1.05263 14.9403 1.05263C21.9604 1.05263 27.6716 5.96365 27.6716 12C27.6772 13.4857 27.3284 14.9567 26.6467 16.3219C25.965 17.6871 24.965 18.9176 23.7084 19.9373Z" fill="#2284E6"/>
<path d="M14.9679 3.53421C13.8757 3.53607 12.818 3.8634 11.9749 4.46047C11.1318 5.05753 10.5554 5.88741 10.3439 6.80881C10.1324 7.73021 10.2989 8.68616 10.8149 9.51389C11.331 10.3416 12.1647 10.99 13.1742 11.3485C14.1837 11.7071 15.3065 11.7537 16.3515 11.4804C17.3964 11.2071 18.2989 10.6308 18.9053 9.84969C19.5116 9.06854 19.7844 8.13082 19.6771 7.19619C19.5698 6.26156 19.089 5.3878 18.3168 4.72369C17.8778 4.34475 17.3558 4.04448 16.781 3.8403C16.2061 3.63612 15.5898 3.53208 14.9679 3.53421ZM17.4508 9.73802C16.8761 10.2347 16.1188 10.5445 15.3081 10.6147C14.4973 10.6848 13.6834 10.511 13.0051 10.1228C12.3268 9.73462 11.8261 9.15611 11.5884 8.48594C11.3507 7.81577 11.3907 7.09545 11.7016 6.44782C12.0125 5.80019 12.5751 5.26536 13.2934 4.93454C14.0116 4.60372 14.8411 4.4974 15.6404 4.63372C16.4396 4.77003 17.1591 5.14054 17.6762 5.68204C18.1933 6.22355 18.4758 6.90252 18.4758 7.60317C18.4777 7.99962 18.3881 8.39246 18.2121 8.75892C18.0362 9.12538 17.7774 9.45817 17.4508 9.73802Z" fill="#2284E6"/>
</svg>
