<svg width="80" height="80" viewBox="0 0 80 80" fill="none" xmlns="http://www.w3.org/2000/svg">
<path fill-rule="evenodd" clip-rule="evenodd" d="M36.6667 6.66602C37.5507 6.66602 38.3986 7.0172 39.0237 7.64233C39.6488 8.26745 40 9.11529 40 9.99935V10.2327C52.3433 11.956 61.8666 23.1327 61.8666 36.666V40.246C61.8666 44.486 62.6333 48.6894 64.12 52.626L66.4367 58.7594C67.2667 60.9494 65.7433 63.3327 63.5133 63.3327H9.81999C7.58998 63.3327 6.06665 60.9494 6.89665 58.7627L9.21332 52.6293C10.7033 48.6894 11.4667 44.486 11.4667 40.246V36.666C11.4667 23.1327 20.99 11.956 33.3333 10.2327V9.99935C33.3333 9.11529 33.6845 8.26745 34.3096 7.64233C34.9348 7.0172 35.7826 6.66602 36.6667 6.66602ZM26.6667 29.9993C26.6667 29.1153 27.0178 28.2674 27.643 27.6423C28.2681 27.0172 29.1159 26.666 30 26.666H43.3333C43.9611 26.6664 44.5761 26.8441 45.1074 27.1786C45.6386 27.5132 46.0646 27.9909 46.3363 28.5569C46.608 29.1229 46.7143 29.7541 46.643 30.3779C46.5717 31.0016 46.3257 31.5926 45.9333 32.0827L36.9333 43.3327H43.3333C44.2174 43.3327 45.0652 43.6839 45.6903 44.309C46.3155 44.9341 46.6667 45.782 46.6667 46.666C46.6667 47.5501 46.3155 48.3979 45.6903 49.023C45.0652 49.6482 44.2174 49.9994 43.3333 49.9994H30C29.3722 49.999 28.7572 49.8213 28.2259 49.4867C27.6947 49.1522 27.2687 48.6745 26.997 48.1085C26.7253 47.5425 26.619 46.9112 26.6903 46.2875C26.7616 45.6637 27.0076 45.0728 27.4 44.5827L36.4 33.3327H30C29.1159 33.3327 28.2681 32.9815 27.643 32.3564C27.0178 31.7313 26.6667 30.8834 26.6667 29.9993Z" fill="#2284E6"/>
<path d="M33.3333 66.666C32.4493 66.666 31.6014 67.0172 30.9763 67.6423C30.3512 68.2674 30 69.1153 30 69.9993C30 70.8834 30.3512 71.7313 30.9763 72.3564C31.6014 72.9815 32.4493 73.3327 33.3333 73.3327H40C40.8841 73.3327 41.7319 72.9815 42.357 72.3564C42.9821 71.7313 43.3333 70.8834 43.3333 69.9993C43.3333 69.1153 42.9821 68.2674 42.357 67.6423C41.7319 67.0172 40.8841 66.666 40 66.666H33.3333ZM63.3333 6.66602C62.4493 6.66602 61.6014 7.0172 60.9763 7.64233C60.3512 8.26745 60 9.11529 60 9.99935C60 10.8834 60.3512 11.7313 60.9763 12.3564C61.6014 12.9815 62.4493 13.3327 63.3333 13.3327H63.77L60.56 18.1493C60.2251 18.6514 60.0327 19.2349 60.0034 19.8376C59.9741 20.4404 60.1091 21.0398 60.3938 21.5719C60.6785 22.104 61.1023 22.5488 61.62 22.8589C62.1377 23.169 62.7299 23.3328 63.3333 23.3327H70C70.8841 23.3327 71.7319 22.9815 72.357 22.3564C72.9821 21.7312 73.3333 20.8834 73.3333 19.9993C73.3333 19.1153 72.9821 18.2674 72.357 17.6423C71.7319 17.0172 70.8841 16.666 70 16.666H69.5633L72.7733 11.8493C73.1083 11.3473 73.3006 10.7638 73.3299 10.1611C73.3592 9.55831 73.2243 8.9589 72.9396 8.4268C72.6549 7.8947 72.2311 7.44987 71.7134 7.13977C71.1957 6.82967 70.6035 6.66593 70 6.66602H63.3333Z" fill="#2284E6"/>
</svg>
