<svg width="30" height="30" viewBox="0 0 30 30" fill="none" xmlns="http://www.w3.org/2000/svg">
<rect width="30" height="30" rx="5" fill="#E6F5FF"/>
<path fill-rule="evenodd" clip-rule="evenodd" d="M4.36112 2H25.6388C27.3635 2 28 2.5485 28 4.03543V21.9775C28 22.1458 27.9921 22.3021 27.9748 22.4469C27.9715 22.474 27.9685 22.5009 27.9654 22.5279C27.9319 22.8242 27.8989 23.1158 27.5779 23.444C27.5437 23.4791 27.1861 23.7085 27.1861 23.7085C27.1513 23.7232 27.1186 23.7371 27.087 23.7506C26.9435 23.8119 26.8232 23.8632 26.6454 23.9249L16.168 27.7078C15.624 27.9226 15.3966 28.0064 15.0015 27.9996L14.9999 27.9997H14.9984C14.6034 28.0064 14.3759 27.9226 13.832 27.7078L3.35455 23.9249C3.17654 23.8631 3.05617 23.8117 2.91243 23.7504C2.88099 23.737 2.84842 23.7231 2.8139 23.7085C2.8139 23.7085 2.45628 23.4791 2.42205 23.444C2.10098 23.1158 2.068 22.8242 2.03449 22.5279C2.03145 22.5009 2.0284 22.474 2.02512 22.4469C2.00788 22.3021 2 22.1458 2 21.9775V4.03543C2 2.5485 2.63648 2 4.36112 2ZM22.4374 11.3367V13.5868C22.4374 13.9856 22.2235 14.1707 21.7796 14.1707H21.4505C20.9902 14.1707 20.7763 13.9856 20.7763 13.5868V7.2921C20.7763 6.89335 20.9902 6.70833 21.4505 6.70833H21.7466C22.1907 6.70833 22.4046 6.89335 22.4046 7.2921V9.24333H24.1312V7.20665C24.1312 5.9678 23.4405 5.36963 22.0099 5.36963H21.1545C19.724 5.36963 19.0166 5.98192 19.0166 7.22101V13.658C19.0166 14.8971 19.724 15.5093 21.1545 15.5093H22.0263C23.4572 15.5093 24.1642 14.8971 24.1642 13.658V11.3367H22.4374ZM7.59545 11.0376H9.66754V9.65635H7.59545V6.83647H9.75007V5.45521H5.83581V15.424H9.78282V14.0427H7.59545V11.0376ZM18.0866 15.424H16.3266V5.45519H18.0866V15.424ZM13.7733 9.88412C13.7733 10.2829 13.5597 10.4681 13.1157 10.4681H12.3919V6.79383H13.1157C13.5597 6.79383 13.7733 6.97889 13.7733 7.37759V9.88412ZM13.3951 5.45512H10.6322V15.4239H12.3919V11.8066H13.3951C14.8259 11.8066 15.533 11.1943 15.533 9.95546V7.3065C15.533 6.06742 14.8259 5.45512 13.3951 5.45512ZM24.2089 20.0799L24.2137 20.0384L24.2185 19.9929V19.9474V19.9391V19.8936L24.2137 19.8481L24.2089 19.8067L24.1993 19.7653L24.1897 19.7239L24.1801 19.6867L24.1659 19.6494L24.1516 19.6122L24.1324 19.5791L24.1083 19.5418L24.0846 19.5087L24.0558 19.4715L24.0272 19.4384L23.9937 19.4094L23.9603 19.3762L23.9219 19.3473L23.8838 19.3183L23.8456 19.2976L23.8072 19.2728L23.7691 19.2521L23.7261 19.2314L23.6829 19.2107L23.6351 19.19L23.5874 19.1735L23.5397 19.1528L23.4869 19.1365L23.4439 19.1241L23.401 19.1116L23.3529 19.0992L23.31 19.0868L23.2623 19.0744L23.2145 19.062L23.1665 19.0537L23.1139 19.0413L23.0662 19.0289L23.0137 19.0206L22.9611 19.0082L22.9086 18.9958L22.8557 18.9834L22.808 18.9751L22.7651 18.9626L22.7218 18.9544L22.6838 18.942L22.6456 18.9337L22.5882 18.9172L22.5354 18.9006L22.4876 18.884L22.4496 18.8633L22.4063 18.8426L22.373 18.8137L22.3538 18.7889L22.3301 18.7433L22.3252 18.6896V18.6812L22.3301 18.6399L22.3489 18.6026L22.3778 18.5654L22.4207 18.5322L22.4543 18.5157L22.4925 18.4991L22.5354 18.4909L22.5834 18.4825L22.636 18.4743H22.6933H22.7411L22.784 18.4784L22.832 18.4825L22.8798 18.4867L22.9275 18.495L22.9752 18.5033L23.0233 18.5116L23.071 18.524L23.1187 18.5364L23.1713 18.5488L23.2097 18.5654L23.2527 18.5778L23.2908 18.5943L23.3341 18.6109L23.3721 18.6274L23.4151 18.644L23.4535 18.6647L23.4965 18.6812L23.5349 18.7061L23.573 18.7267L23.616 18.7475L23.6544 18.7723L23.6829 18.7392L23.7069 18.7061L23.7354 18.673L23.7643 18.6399L23.7928 18.6026L23.8168 18.5695L23.8456 18.5364L23.8742 18.5033L23.8981 18.4702L23.9267 18.4371L23.9555 18.4039L23.9796 18.3708L24.0081 18.3336L24.0369 18.3005L24.0654 18.2674L24.0895 18.2343L24.1179 18.2011L24.0798 18.1763L24.0417 18.1515L24.0033 18.1267L23.9651 18.106L23.9219 18.0812L23.8838 18.0605L23.8408 18.0398L23.7976 18.0191L23.7595 18.0025L23.7165 17.9818L23.6685 17.9652L23.6255 17.9487L23.5827 17.9322L23.5397 17.9197L23.4917 17.9032L23.4487 17.8949L23.4058 17.8825L23.3578 17.8701L23.3148 17.8618L23.2671 17.8535L23.2193 17.8452L23.1761 17.837L23.1283 17.8287L23.0758 17.8246L23.0281 17.8163L22.9752 17.8121H22.9275L22.875 17.808L22.8224 17.8039H22.7699H22.7173H22.6645H22.6168L22.569 17.808L22.5213 17.8121L22.4733 17.8163L22.4255 17.8204L22.3826 17.8287L22.3348 17.837L22.2917 17.8452L22.2487 17.8535L22.2105 17.8618L22.1673 17.8742L22.1196 17.8908L22.0719 17.9032L22.0286 17.9197L21.9857 17.9404L21.9428 17.957L21.8995 17.9777L21.8614 17.9983L21.8232 18.0232L21.7848 18.048L21.7515 18.0687L21.7131 18.0977L21.6797 18.1308L21.6461 18.1598L21.6128 18.1929L21.584 18.226L21.5554 18.2591L21.5314 18.2963L21.5077 18.3336L21.4885 18.3708L21.4693 18.4081L21.4503 18.4453L21.4408 18.4825L21.4263 18.5199L21.4167 18.5571L21.4071 18.5943L21.4023 18.6357L21.3975 18.673L21.3927 18.7143V18.7558V18.764V18.8095L21.3975 18.855L21.4023 18.8964L21.4071 18.9378L21.4167 18.9751L21.4263 19.0165L21.4408 19.0496L21.4549 19.0868L21.4693 19.12L21.4885 19.1487L21.5125 19.1859L21.5362 19.219L21.5603 19.248L21.5888 19.2769L21.6176 19.3059L21.651 19.3349L21.6845 19.3638L21.7179 19.3887L21.7563 19.4094L21.7944 19.4342L21.8373 19.4549L21.8758 19.4756L21.9236 19.4963L21.9664 19.517L22.0145 19.5335L22.0622 19.5501L22.1099 19.5666L22.1625 19.5832L22.2057 19.5956L22.2487 19.608L22.2917 19.6205L22.3394 19.6288L22.3826 19.6411L22.4304 19.6536L22.478 19.6619L22.5261 19.6743L22.5738 19.6825L22.6264 19.695L22.6741 19.7032L22.7266 19.7156L22.7747 19.7239L22.8224 19.7363L22.8653 19.7446L22.9086 19.757L22.9467 19.7653L22.9801 19.7736L23.0374 19.7942L23.0854 19.8108L23.1283 19.8274L23.1665 19.8439L23.205 19.8688L23.2383 19.8936L23.2623 19.9226L23.2815 19.9639L23.2862 20.0136V20.0218L23.2815 20.0633L23.2671 20.1005L23.2478 20.1336L23.2193 20.1626L23.1809 20.1874L23.1476 20.204L23.1092 20.2164L23.0662 20.2246L23.0233 20.233L22.9752 20.2412L22.9227 20.2453H22.8653H22.8176L22.7651 20.2412H22.7173L22.6693 20.233L22.6168 20.2288L22.569 20.2205L22.5213 20.2123L22.4733 20.204L22.4304 20.1916L22.3826 20.1791L22.3348 20.1667L22.2917 20.1502L22.2487 20.1378L22.2057 20.1212L22.1625 20.1047L22.1196 20.0881L22.0815 20.0674L22.0382 20.0509L22.0001 20.0301L21.9571 20.0053L21.9187 19.9847L21.8758 19.9598L21.8373 19.935L21.7944 19.9102L21.7563 19.8853L21.7275 19.9184L21.6942 19.9474L21.6653 19.9805L21.632 20.0136L21.6032 20.0425L21.5746 20.0757L21.541 20.1088L21.5125 20.1378L21.4789 20.1709L21.4503 20.1998L21.4167 20.233L21.3882 20.2661L21.3594 20.295L21.326 20.3281L21.2972 20.3613L21.2639 20.3902L21.2351 20.4233L21.2732 20.4523L21.3068 20.4771L21.345 20.502L21.3834 20.5268L21.4216 20.5517L21.4596 20.5765L21.4981 20.5972L21.5362 20.6178L21.5795 20.6385L21.6176 20.6592L21.6605 20.6799L21.7037 20.6965L21.7467 20.7169L21.7896 20.7335L21.8328 20.75L21.8806 20.7666L21.9236 20.779L21.9713 20.7914L22.0145 20.808L22.0622 20.8204L22.1099 20.8328L22.1529 20.8411L22.2009 20.8535L22.2487 20.8618L22.2964 20.87L22.3441 20.8783L22.3922 20.8866L22.4399 20.8907L22.4876 20.899L22.5403 20.9031L22.5882 20.9073L22.636 20.9115H22.6885L22.7363 20.9156H22.784H22.8368H22.8894H22.9371L22.9849 20.9115L23.0374 20.9073L23.0854 20.9031L23.1283 20.899L23.1761 20.8949L23.2242 20.8866L23.2671 20.8783L23.31 20.87L23.3578 20.8618L23.401 20.8494L23.4487 20.8369L23.4965 20.8245L23.5442 20.808L23.5922 20.7914L23.6351 20.7707L23.6781 20.7541L23.7213 20.7335L23.7595 20.7086L23.7976 20.6882L23.836 20.6634L23.8694 20.6385L23.9077 20.6096L23.9363 20.5847L23.9699 20.5557L23.9984 20.5268L24.0224 20.4937L24.051 20.4606L24.075 20.4274L24.099 20.3944L24.1179 20.3571L24.1372 20.324L24.1563 20.2868L24.1708 20.2453L24.1801 20.2081L24.1945 20.1667L24.2041 20.1253L24.2089 20.0799ZM20.8127 20.8659H20.8608H20.9085V20.8245V20.7872V20.7459V20.7045V20.6634V20.6261V20.5847V20.5434V20.506V20.4647V20.4233V20.3861V20.3447V20.3033V20.2619V20.2246V20.1833H20.8608H20.8127H20.765H20.7173H20.6696H20.6215H20.5738H20.5261H20.4783H20.4255H20.3777H20.33H20.2823H20.2342H20.1865H20.1387H20.091H20.0429H19.9952H19.9475H19.8998H19.852H19.804H19.7563H19.7085H19.6607H19.6127H19.5649H19.5172H19.4647H19.4167H19.3689H19.3212H19.2735H19.2255H19.1777H19.13H19.0821H19.0342V20.1419V20.0964V20.055V20.0136V19.9681V19.9267V19.8853V19.8398V19.7984V19.757V19.7115V19.6701H19.0821H19.13H19.1777H19.2255H19.2735H19.3212H19.3689H19.4167H19.4599H19.5077H19.5554H19.6031H19.6512H19.6989H19.7466H19.7944H19.8424H19.8901H19.9379H19.9856H20.0336H20.0814H20.1291H20.1769H20.2249H20.2726H20.3156H20.3633H20.4113H20.4591H20.5068H20.5545H20.6026H20.6503H20.6981V19.6288V19.5914V19.5501V19.5087V19.4715V19.4301V19.3887V19.3473V19.31V19.2687V19.2273V19.19V19.1487V19.1075V19.0702V19.0289H20.6503H20.6026H20.5545H20.5068H20.4591H20.4113H20.3633H20.3156H20.2726H20.2249H20.1769H20.1291H20.0814H20.0336H19.9856H19.9379H19.8901H19.8424H19.7944H19.7466H19.6989H19.6512H19.6031H19.5554H19.5077H19.4599H19.4167H19.3689H19.3212H19.2735H19.2255H19.1777H19.13H19.0821H19.0342V18.9875V18.9461V18.9047V18.8633V18.8219V18.7806V18.7433V18.7019V18.6605V18.6191V18.5778V18.5364H19.0821H19.13H19.1777H19.2255H19.2735H19.3212H19.3641H19.4119H19.4599H19.5077H19.5554H19.6031H19.6512H19.6989H19.7466H19.7944H19.8424H19.8901H19.9379H19.9808H20.0289H20.0766H20.1243H20.1721H20.2201H20.2678H20.3156H20.3633H20.4113H20.4591H20.5068H20.5545H20.5978H20.6455H20.6933H20.741H20.789H20.8368H20.8845V18.495V18.4578V18.4163V18.375V18.3336V18.2963V18.255V18.2135V18.1763V18.135V18.0936V18.0563V18.0149V17.9735V17.9322V17.8949V17.8535H20.8368H20.789H20.741H20.6933H20.6455H20.5978H20.5498H20.502H20.4543H20.4066H20.3585H20.3108H20.2631H20.2153H20.1721H20.1243H20.0766H20.0289H19.9808H19.9331H19.8854H19.8376H19.7896H19.7418H19.694H19.6464H19.5986H19.5505H19.5028H19.4551H19.4074H19.3593H19.3116H19.2638H19.2161H19.1681H19.1203H19.0726H19.0248H18.9769H18.9291H18.8813H18.8335H18.7904H18.7426H18.695H18.6471H18.5992H18.5514H18.5036H18.4559H18.4079H18.3601H18.3124H18.2647H18.2167H18.1689H18.1211V17.8949V17.9363V17.9777V18.0191V18.0605V18.1018V18.1432V18.1846V18.226V18.2674V18.3088V18.3502V18.3915V18.4329V18.4743V18.5157V18.5571V18.5985V18.6357V18.6771V18.7185V18.7599V18.8013V18.8426V18.884V18.9254V18.9668V19.0082V19.0496V19.091V19.1323V19.1735V19.2149V19.2563V19.2976V19.339V19.3804V19.4218V19.4632V19.5046V19.5459V19.5874V19.6288V19.6701V19.7115V19.7529V19.7942V19.8357V19.877V19.9184V19.9598V20.0012V20.0425V20.084V20.1212V20.1626V20.204V20.2453V20.2868V20.3281V20.3695V20.4109V20.4523V20.4937V20.5351V20.5765V20.6178V20.6592V20.7006V20.7418V20.7832V20.8245V20.8659H18.1689H18.2167H18.2647H18.3124H18.3601H18.4079H18.4559H18.5036H18.5514H18.6039H18.6517H18.6997H18.7474H18.7952H18.8429H18.8909H18.9387H18.9864H19.0342H19.0821H19.13H19.1777H19.2255H19.2735H19.3212H19.3689H19.4167H19.4647H19.5172H19.5649H19.6127H19.6607H19.7085H19.7563H19.804H19.852H19.8998H19.9475H19.9952H20.0429H20.091H20.1387H20.1865H20.2342H20.2823H20.33H20.3777H20.4255H20.4783H20.5261H20.5738H20.6215H20.6696H20.7173H20.765H20.8127ZM17.3197 20.8659H17.3674H17.4152V20.8245V20.7832V20.7418V20.7006V20.6592V20.6178V20.5765V20.5351V20.4937V20.4523V20.4109V20.3695V20.3281V20.2868V20.2453V20.204V20.1626V20.1212V20.084V20.0425V20.0012V19.9598V19.9184V19.877V19.8357V19.7942V19.7529V19.7115V19.6701V19.6288V19.5874V19.5459V19.5046V19.4632V19.4218V19.3804V19.339V19.2976V19.2563V19.2149V19.1735V19.1323V19.091V19.0496V19.0082V18.9668V18.9254V18.884V18.8426V18.8013V18.7599V18.7185V18.6771V18.6357V18.5985V18.5571V18.5157V18.4743V18.4329V18.3915V18.3502V18.3088V18.2674V18.226V18.1846V18.1432V18.1018V18.0605V18.0191V17.9777V17.9363V17.8949V17.8535H17.3674H17.3197H17.2765H17.2287H17.181H17.1332H17.0901H17.0423H16.9946H16.9468H16.9036H16.8558H16.8082H16.7604H16.7171H16.6694H16.6217H16.5739H16.5307H16.4829H16.4352L16.4112 17.8867L16.3875 17.9239L16.3587 17.9567L16.3346 17.994L16.3109 18.0271L16.2869 18.0644L16.2584 18.0972L16.2344 18.1345L16.2104 18.1676L16.1866 18.2007L16.1579 18.2376L16.134 18.2708L16.1101 18.308L16.0861 18.3412L16.0575 18.3782L16.0335 18.4113L16.0098 18.4444L15.9858 18.4814L15.9618 18.5144L15.9332 18.5517L15.9093 18.5849L15.8852 18.6218L15.8614 18.655L15.8326 18.6922L15.8089 18.725L15.7849 18.7581L15.7609 18.7954L15.7324 18.8286L15.7084 18.8658L15.6846 18.8986L15.6606 18.9359L15.6321 18.969L15.6081 19.006L15.5841 19.0392L15.5604 19.006L15.5363 18.969L15.5075 18.9359L15.4837 18.8986L15.4598 18.8658L15.436 18.8286L15.412 18.7954L15.3832 18.7581L15.3595 18.725L15.3355 18.6922L15.3118 18.655L15.2878 18.6218L15.259 18.5849L15.2351 18.5517L15.2111 18.5144L15.1875 18.4814L15.1634 18.4444L15.1346 18.4113L15.1109 18.3782L15.0869 18.3412L15.0629 18.308L15.0343 18.2708L15.0103 18.2376L14.9866 18.2007L14.9625 18.1676L14.9386 18.1345L14.91 18.0972L14.886 18.0644L14.8623 18.0271L14.8383 17.994L14.8142 17.9567L14.7857 17.9239L14.7617 17.8867L14.738 17.8535H14.6899H14.6422H14.5993H14.5515H14.5035H14.4557H14.4129H14.3651H14.3171H14.2694H14.2264H14.1787H14.1306H14.0829H14.0399H13.9919H13.9442H13.8964H13.8535H13.8054H13.7577V17.8949V17.9363V17.9777V18.0191V18.0605V18.1018V18.1432V18.1846V18.226V18.2674V18.3088V18.3502V18.3915V18.4329V18.4743V18.5157V18.5571V18.5985V18.6357V18.6771V18.7185V18.7599V18.8013V18.8426V18.884V18.9254V18.9668V19.0082V19.0496V19.091V19.1323V19.1735V19.2149V19.2563V19.2976V19.339V19.3804V19.4218V19.4632V19.5046V19.5459V19.5874V19.6288V19.6701V19.7115V19.7529V19.7942V19.8357V19.877V19.9184V19.9598V20.0012V20.0425V20.084V20.1212V20.1626V20.204V20.2453V20.2868V20.3281V20.3695V20.4109V20.4523V20.4937V20.5351V20.5765V20.6178V20.6592V20.7006V20.7418V20.7832V20.8245V20.8659H13.8054H13.8535H13.9012H13.949H13.9968H14.0447H14.0925H14.1403H14.188H14.236H14.2838H14.3315H14.3792H14.4273H14.475H14.5227H14.5705H14.6185H14.6662V20.8245V20.7832V20.7418V20.7004V20.6587V20.6174V20.576V20.5345V20.4932V20.4518V20.4146V20.373V20.3315V20.2902V20.2488V20.2074V20.1658V20.1244V20.083V20.0416V20.0002V19.9588V19.9172V19.8758V19.8344V19.793V19.7517V19.7103V19.6686V19.6273V19.5859V19.5445V19.5073V19.4658V19.4243V19.3828V19.3415V19.3001V19.2587V19.2171V19.1757V19.1343V19.0929L14.6947 19.126L14.7188 19.1635L14.7473 19.1966L14.7713 19.2338L14.8001 19.267L14.8239 19.3042L14.8527 19.3376L14.8764 19.3748L14.9052 19.4079L14.9292 19.4452L14.9578 19.4783L14.9818 19.5158L15.0103 19.5489L15.0343 19.5861L15.0629 19.6192L15.0869 19.6567L15.1157 19.6898L15.1442 19.7271L15.1683 19.7602L15.1967 19.7977L15.2208 19.8307L15.2496 19.868L15.2733 19.9011L15.3021 19.9386L15.3258 19.9717L15.3547 20.009L15.3787 20.0421L15.4072 20.0794L15.4312 20.1127L15.4598 20.15L15.4837 20.183L15.5123 20.2203L15.5363 20.2537L15.5651 20.2909H15.5841L15.6081 20.2578L15.6367 20.2203L15.6606 20.1872L15.6895 20.1541L15.7132 20.1169L15.7419 20.0837L15.7657 20.0503L15.7897 20.0131L15.8186 19.98L15.8423 19.9469L15.8711 19.9136L15.8948 19.8763L15.9236 19.8432L15.9477 19.8101L15.9714 19.7726L16.0002 19.7395L16.0239 19.7064L16.0527 19.6692L16.0764 19.636L16.1052 19.6027L16.1293 19.5654L16.153 19.5323L16.1819 19.4992L16.2056 19.4618L16.2344 19.4286L16.2584 19.3955L16.2869 19.3624L16.3109 19.3249L16.3346 19.2918L16.3635 19.2587L16.3875 19.2215L16.416 19.1883L16.44 19.1552L16.4686 19.1177L16.4925 19.0846V19.126V19.1674V19.2088V19.2504V19.2918V19.3332V19.3746V19.4159V19.4576V19.499V19.5404V19.5817V19.6231V19.6645V19.7061V19.7475V19.7889V19.8303V19.8717V19.9131V19.9547V19.9961V20.0375V20.0788V20.1202V20.1616V20.2033V20.2446V20.286V20.3274V20.3688V20.4104V20.4518V20.4932V20.5345V20.576V20.6174V20.6587V20.7004V20.7418V20.7832V20.8245V20.8659H16.5403H16.588H16.6361H16.6886H16.7364H16.7841H16.8321H16.8799H16.9276H16.9801H17.0279H17.0759H17.1236H17.1715H17.2192H17.2719H17.3197ZM11.8057 19.5871L11.8201 19.6246L11.8393 19.6619H11.7915H11.7436H11.6958H11.648H11.6003H11.5526H11.5045H11.4568H11.4139H11.3659H11.3181H11.2704H11.2226H11.1746H11.1269H11.0791H11.0314L11.0503 19.6246L11.0647 19.5871L11.0839 19.5457L11.1032 19.5085L11.1172 19.471L11.1365 19.4337L11.1556 19.3923L11.1746 19.3548L11.189 19.3176L11.2083 19.2804L11.2274 19.2429L11.2416 19.2015L11.2608 19.1642L11.28 19.1267L11.2944 19.0895L11.3133 19.0523L11.3326 19.0107L11.3517 18.9733L11.3659 18.9361L11.3851 18.8986L11.4044 18.8573L11.4187 18.8198L11.4376 18.7825L11.4568 18.8198L11.4712 18.8573L11.4902 18.8986L11.5094 18.9361L11.5238 18.9733L11.543 19.0107L11.5619 19.0523L11.5763 19.0895L11.5955 19.1267L11.6147 19.1642L11.6288 19.2015L11.648 19.2429L11.6625 19.2804L11.6814 19.3176L11.7006 19.3548L11.7151 19.3923L11.7342 19.4337L11.7531 19.471L11.7675 19.5085L11.7868 19.5457L11.8057 19.5871ZM13.2736 20.8659H13.3216H13.3693L13.3501 20.8287L13.3309 20.7914L13.312 20.7541L13.2976 20.7128L13.2783 20.6757L13.2592 20.6385L13.2402 20.6013L13.221 20.5641L13.2018 20.5268L13.1829 20.4854L13.1637 20.4481L13.1492 20.4109L13.1303 20.3737L13.1111 20.3364L13.0919 20.2992L13.0727 20.2578L13.0538 20.2205L13.0346 20.1833L13.0153 20.1461L13.0013 20.1088L12.982 20.0715L12.9628 20.0301L12.9436 19.9929L12.9246 19.9557L12.9054 19.9184L12.8862 19.8812L12.8673 19.8439L12.8529 19.8025L12.8337 19.7653L12.8148 19.728L12.7955 19.6908L12.7763 19.6536L12.7571 19.6163L12.7382 19.5749L12.719 19.5377L12.7046 19.5004L12.6857 19.4632L12.6665 19.426L12.6473 19.3887L12.6281 19.3473L12.6091 19.31L12.5899 19.2728L12.5707 19.2356L12.5566 19.1984L12.5374 19.161L12.5182 19.1241L12.4992 19.0827L12.48 19.0454L12.4608 19.0082L12.4416 18.9709L12.4227 18.9337L12.4082 18.8964L12.3891 18.855L12.3701 18.8178L12.3509 18.7806L12.3317 18.7433L12.3125 18.7061L12.2935 18.6688L12.2743 18.6274L12.2599 18.5902L12.241 18.553L12.2218 18.5157L12.2026 18.4784L12.1837 18.4412L12.1645 18.3998L12.1452 18.3626L12.1261 18.3253L12.1119 18.2881L12.0927 18.2509L12.0735 18.2135L12.0546 18.1722L12.0354 18.135L12.0162 18.0977L11.997 18.0605L11.978 18.0232L11.9636 17.986L11.9444 17.9446L11.9255 17.9073L11.9063 17.8701L11.8871 17.8328H11.8393H11.7964H11.7483H11.7006H11.6529H11.6099H11.5619H11.5142H11.4665H11.4235H11.3754H11.3277H11.28H11.237H11.189H11.1412H11.0935H11.0503H11.0026L10.9837 17.8701L10.9644 17.9073L10.9453 17.9446L10.9308 17.986L10.9119 18.0232L10.8927 18.0605L10.8735 18.0977L10.8546 18.135L10.8353 18.1722L10.8161 18.2135L10.7969 18.2509L10.7828 18.2881L10.7635 18.3253L10.7443 18.3626L10.7254 18.3998L10.7062 18.4412L10.687 18.4784L10.6681 18.5157L10.6489 18.553L10.6344 18.5902L10.6153 18.6274L10.5964 18.6688L10.5771 18.7061L10.5579 18.7433L10.539 18.7806L10.5198 18.8178L10.5006 18.855L10.4862 18.8964L10.4672 18.9337L10.448 18.9709L10.4288 19.0082L10.4099 19.0454L10.3907 19.0827L10.3715 19.1241L10.3525 19.161L10.3381 19.1984L10.3189 19.2356L10.2997 19.2728L10.2808 19.31L10.2616 19.3473L10.2424 19.3887L10.2234 19.426L10.2042 19.4632L10.1898 19.5004L10.1706 19.5377L10.1517 19.5749L10.1325 19.6163L10.1133 19.6536L10.0943 19.6908L10.0752 19.728L10.0559 19.7653L10.0415 19.8025L10.0226 19.8439L10.0034 19.8812L9.98414 19.9184L9.96528 19.9557L9.94605 19.9929L9.92682 20.0301L9.9079 20.0715L9.8935 20.1088L9.87427 20.1461L9.8551 20.1833L9.83612 20.2205L9.81695 20.2578L9.79771 20.2992L9.77879 20.3364L9.75956 20.3737L9.74523 20.4109L9.72599 20.4481L9.70707 20.4854L9.68784 20.5268L9.66861 20.5641L9.64969 20.6013L9.63052 20.6385L9.61128 20.6757L9.59689 20.7128L9.57791 20.7541L9.55874 20.7914L9.5395 20.8287L9.52058 20.8659H9.56835H9.61612H9.66383H9.71192H9.76446H9.81217H9.85981H9.9079H9.95567H10.0034H10.0511H10.0991H10.1469H10.1946H10.2472H10.2949H10.343H10.3907H10.4384H10.4862L10.5054 20.8287L10.5198 20.7914L10.539 20.7541L10.5579 20.7128L10.5723 20.6757L10.5916 20.6385L10.6105 20.6013L10.6249 20.5641L10.6441 20.5268L10.6633 20.4895L10.6774 20.4523L10.6966 20.4109L10.7158 20.3737L10.7302 20.3364L10.7492 20.2992H10.7969H10.8449H10.8927H10.9404H10.9837H11.0314H11.0791H11.1269H11.1746H11.2226H11.2704H11.3181H11.3659H11.4139H11.4568H11.5045H11.5526H11.6003H11.648H11.6958H11.7436H11.7915H11.8393H11.8871H11.9303H11.978H12.0257H12.0735H12.1212L12.1405 20.3364L12.1549 20.3737L12.1741 20.4109L12.1931 20.4523L12.2074 20.4895L12.2266 20.5268L12.2458 20.5641L12.2599 20.6013L12.2792 20.6385L12.2983 20.6757L12.3125 20.7128L12.3317 20.7541L12.3509 20.7914L12.3653 20.8287L12.3843 20.8659H12.4323H12.48H12.5229H12.5707H12.6187H12.6665H12.7142H12.7571H12.8052H12.8529H12.9006H12.9484H12.9964H13.0394H13.0871H13.1348H13.1829H13.2306H13.2736ZM9.09461 20.506L9.13302 20.4812L9.16633 20.4564V20.415V20.3737V20.3323V20.295V20.2537V20.2123V20.1709V20.1295V20.0881V20.0509V20.0095V19.9681V19.9267V19.8853V19.8439V19.8025V19.7653V19.7239V19.6825V19.6411V19.5998V19.5583V19.517V19.4797V19.4384V19.3969V19.3555V19.3142V19.2728V19.2356V19.1941V19.1528V19.1116H9.11856H9.07085H9.02283H8.97512H8.92735H8.87965H8.83156H8.78385H8.73608H8.68831H8.64036H8.59259H8.54488H8.49711H8.44909H8.40138H8.35367H8.30584H8.25782H8.21011H8.16234H8.11463H8.06661H8.01884H7.97113H7.92337H7.87534H7.82764H7.77987H7.73216H7.68439H7.63637H7.5886V19.1528V19.19V19.2314V19.2728V19.3142V19.3515V19.3928V19.4342V19.4756V19.5128V19.5542V19.5956V19.637V19.6743V19.7156H7.63637H7.67955H7.72732H7.77509H7.82286H7.86604H7.91375H7.96145H8.00929H8.05247H8.10024H8.14795H8.19572H8.2389H8.28667V19.757V19.7984V19.8398V19.8812V19.9267V19.9681V20.0095V20.0509V20.0922L8.24852 20.113L8.21489 20.1295L8.17202 20.1461L8.13362 20.1626L8.09056 20.1791L8.04769 20.1874L7.99992 20.1998L7.9519 20.2081L7.90419 20.2164L7.85642 20.2205L7.80388 20.2246L7.75102 20.2288H7.69369H7.64114L7.5886 20.2246L7.54089 20.2205L7.49312 20.2123L7.4451 20.204L7.39739 20.1916L7.34956 20.1791L7.30644 20.1626L7.26351 20.1461L7.22052 20.1295L7.18211 20.1088L7.14402 20.0881L7.10587 20.0633L7.0674 20.0384L7.03415 20.0136L7.00524 19.9847L6.97192 19.9557L6.94314 19.9267L6.9146 19.8936L6.89059 19.8605L6.86658 19.8274L6.84282 19.7901L6.82365 19.7529L6.80441 19.7115L6.79027 19.6784L6.77588 19.6411L6.76632 19.6039L6.75664 19.5666L6.74709 19.5294L6.74225 19.488L6.73747 19.4508L6.73301 19.4094V19.368V19.3597V19.3142L6.73747 19.2728L6.74225 19.2314L6.75187 19.1859L6.76148 19.1487L6.77104 19.1075L6.78549 19.0661L6.80441 19.0289L6.81887 18.9916L6.83804 18.9544L6.86205 18.9213L6.88575 18.884L6.90976 18.8509L6.93352 18.8219L6.96237 18.7889L6.99568 18.7599L7.02447 18.7309L7.05778 18.7061L7.09147 18.6812L7.12479 18.6565L7.16326 18.6357L7.20134 18.615L7.23975 18.5943L7.28268 18.5778L7.32567 18.5612L7.36854 18.5488L7.41179 18.5364L7.45471 18.5281L7.50249 18.5199L7.54567 18.5157L7.59344 18.5116H7.64114H7.69369L7.74649 18.5157L7.79904 18.5199L7.84687 18.524L7.89458 18.5322L7.94228 18.5406L7.98553 18.5488L8.02846 18.5612L8.07139 18.5736L8.10979 18.5861L8.14795 18.6026L8.18635 18.6191L8.22928 18.6399L8.26744 18.6605L8.30584 18.6812L8.34399 18.7019L8.38215 18.7267L8.42055 18.7475L8.4587 18.7764L8.49711 18.8013L8.52564 18.7682L8.55921 18.7392L8.58781 18.7061L8.62144 18.673L8.64991 18.6399L8.67876 18.6109L8.71214 18.5778L8.74086 18.5447L8.77424 18.5116L8.80309 18.4825L8.83156 18.4494L8.86519 18.4163L8.89373 18.3874L8.92258 18.3543L8.95589 18.3212L8.98474 18.2881L9.01805 18.2591L9.04684 18.226L9.00869 18.2011L8.97028 18.1722L8.93219 18.1474L8.89373 18.1225L8.85564 18.1018L8.81748 18.077L8.77424 18.0563L8.73608 18.0356L8.69322 18.0149L8.65475 17.9942L8.61182 17.9777L8.56889 17.957L8.52564 17.9404L8.48271 17.9239L8.43979 17.9073L8.39654 17.8949L8.35839 17.8825L8.31552 17.8742L8.27227 17.8618L8.22928 17.8535L8.18635 17.8452L8.14317 17.837L8.0954 17.8287L8.04769 17.8204L8.00445 17.8163L7.9519 17.808L7.90419 17.8039H7.85642L7.80388 17.7997L7.75102 17.7955H7.69847H7.64598H7.59821H7.54567L7.49765 17.7997L7.44988 17.8039L7.40217 17.808L7.3544 17.8121L7.30644 17.8204L7.25861 17.8246L7.2109 17.8328L7.16797 17.8452L7.11995 17.8535L7.07702 17.8659L7.03415 17.8742L6.99084 17.8908L6.94314 17.9032L6.90498 17.9156L6.85721 17.9363L6.81403 17.9528L6.77104 17.9694L6.72817 17.9901L6.68493 18.0108L6.64199 18.0315L6.6039 18.0522L6.56544 18.0729L6.52728 18.0977L6.48888 18.1184L6.45073 18.1432L6.41735 18.168L6.37896 18.197L6.34564 18.2218L6.31205 18.2509L6.27868 18.2797L6.24986 18.3088L6.21654 18.3377L6.18772 18.3667L6.15917 18.3998L6.13035 18.4329L6.10185 18.466L6.07781 18.4991L6.05386 18.5322L6.03008 18.5654L6.00608 18.5985L5.98208 18.6357L5.96317 18.673L5.94394 18.7102L5.92476 18.7475L5.9058 18.7847L5.88657 18.8261L5.87216 18.8633L5.85775 18.9047L5.84366 18.942L5.83402 18.9834L5.81961 19.0247L5.81002 19.062L5.80526 19.1034L5.79567 19.1445L5.7908 19.19L5.78629 19.2314V19.2728L5.78153 19.3183V19.3597V19.368V19.4094V19.4549L5.78629 19.4963L5.7908 19.5377L5.79567 19.5791L5.80038 19.6163L5.81002 19.6577L5.81484 19.695L5.82444 19.7363L5.83884 19.7736L5.84843 19.815L5.86257 19.8522L5.87216 19.8894L5.89139 19.9267L5.9058 19.9598L5.92476 19.997L5.94394 20.0343L5.96317 20.0715L5.98208 20.1088L6.00608 20.1419L6.03008 20.1791L6.05386 20.2123L6.07781 20.2453L6.10635 20.2785L6.13035 20.3116L6.15917 20.3406L6.18772 20.3737L6.21654 20.4026L6.24986 20.4316L6.2835 20.4606L6.31682 20.4854L6.35046 20.5144L6.38378 20.5392L6.41735 20.5641L6.45557 20.5889L6.49372 20.6137L6.53212 20.6385L6.57021 20.6592L6.60868 20.6799L6.65161 20.7006L6.6897 20.7211L6.73301 20.7418L6.77588 20.7584L6.81887 20.7749L6.86205 20.7914L6.90976 20.808L6.95269 20.8204L6.99568 20.8369L7.03893 20.8494L7.08663 20.8576L7.12956 20.87L7.17759 20.8783L7.22052 20.8866L7.26829 20.8949L7.31599 20.9031L7.36408 20.9073L7.41179 20.9115L7.45949 20.9156L7.51204 20.9197L7.55981 20.9238H7.60783H7.66031H7.71292H7.76547L7.81796 20.9197L7.86604 20.9156L7.91859 20.9115L7.96629 20.9073L8.01884 20.9031L8.06661 20.899L8.11463 20.8907L8.16234 20.8825L8.20533 20.8742L8.25336 20.8659L8.29629 20.8535L8.34399 20.8411L8.38699 20.8287L8.43017 20.8163L8.47316 20.8038L8.51603 20.7872L8.56411 20.7707L8.60704 20.7541L8.65475 20.7376L8.69768 20.7169L8.74086 20.7006L8.78385 20.6799L8.82679 20.6592L8.87003 20.6385L8.90818 20.6178L8.94659 20.5972L8.98474 20.5723L9.02283 20.5517L9.06124 20.5268L9.09461 20.506ZM9.98716 24.4377H20.0606L14.9189 25.8989L9.98716 24.4377Z" fill="#313131"/>
</svg>
