<svg width="30" height="30" viewBox="0 0 30 30" fill="none" xmlns="http://www.w3.org/2000/svg">
<rect width="30" height="30" rx="5" fill="#E6F5FF"/>
<g clip-path="url(#clip0_482_6172)">
<path d="M17.5445 8.82694C17.0765 4.12962 13.9048 2 10.0941 2H9.8676C5.87804 2 2.21927 5.50888 2 10.68H3.04491C3.39187 6.40915 6.54104 3.67863 9.88262 3.67863H10.0788C13.249 3.67863 15.9135 5.07856 16.4754 8.86786L4.72393 9.31885V26.8085L28 28V8.42548L17.5445 8.82694ZM26.7014 27.0248L6.02249 25.8325V10.2949L26.7014 9.40113V27.0248Z" fill="#001F3F"/>
<path d="M16.1743 24.1236C16.1645 24.5763 15.9106 24.9321 15.6067 24.917L13.9106 24.8356C13.607 24.8206 13.369 24.4419 13.3788 23.9892C13.3883 23.5365 13.6425 23.1807 13.9464 23.1958L15.6422 23.2772C15.9461 23.2923 16.1845 23.6709 16.1743 24.1236Z" fill="#001F3F"/>
<path d="M19.3449 24.2759C19.335 24.7286 19.0808 25.0844 18.7772 25.0693L17.0811 24.9879C16.7775 24.9729 16.5392 24.5942 16.549 24.1415C16.5588 23.6888 16.813 23.3339 17.117 23.3481L18.8127 23.4303C19.1164 23.4446 19.3547 23.8232 19.3449 24.2759Z" fill="#001F3F"/>
<path d="M25.1135 13.4056C24.6787 12.2439 23.695 11.8274 22.9159 12.4756C22.1367 13.1235 21.8571 14.5906 22.2919 15.7528C22.7267 16.9145 23.7106 17.331 24.4895 16.6823C25.2686 16.0345 25.5479 14.5678 25.1135 13.4056ZM23.7025 13.5228C23.7334 13.2798 23.758 13.0326 23.7771 12.7823C24.1985 12.9357 24.5779 13.3376 24.8061 13.9466C24.8823 14.1504 24.9349 14.3632 24.9684 14.579C24.6229 14.0358 24.1783 13.6761 23.7025 13.5228Z" fill="#001F3F"/>
<path d="M24.3973 19.0815C24.0731 18.2148 23.3394 17.9047 22.7581 18.3884C22.1769 18.8713 21.9686 19.965 22.293 20.8325C22.6168 21.6992 23.3509 22.0093 23.9319 21.5256C24.5131 21.0423 24.7214 19.9477 24.3973 19.0815ZM23.4448 19.1233C23.465 18.9652 23.4809 18.8054 23.4933 18.643C23.7663 18.7421 24.0122 19.0031 24.1601 19.3977C24.2095 19.5299 24.2436 19.6678 24.2652 19.8073C24.0414 19.4558 23.7536 19.2228 23.4448 19.1233Z" fill="#001F3F"/>
<path d="M21.5936 17.0875C21.236 16.1308 20.4262 15.7884 19.7852 16.3221C19.1435 16.8554 18.9139 18.0627 19.2718 19.0186C19.6294 19.9753 20.4389 20.3177 21.0802 19.784C21.7216 19.2512 21.9512 18.0438 21.5936 17.0875ZM20.4736 17.1353C20.4984 16.9402 20.5181 16.7425 20.5334 16.5422C20.8711 16.665 21.175 16.9863 21.3579 17.4752C21.4188 17.6385 21.461 17.8082 21.4879 17.9818C21.2108 17.5459 20.8552 17.2581 20.4736 17.1353Z" fill="#001F3F"/>
<path d="M10.6216 16.4209L10.6742 13.9609L8.83076 14.2228L8.80592 16.5993L7.20923 16.7556V19.3737L8.77818 19.2996L8.75363 21.6765H10.5095L10.5621 19.2165L12.1313 19.1433L12.2191 16.2633L10.6216 16.4209ZM10.4347 15.7317L10.1542 16.0707L10.1831 14.716L9.60527 14.7979L9.95252 14.3779L10.465 14.3051L10.4347 15.7317Z" fill="#001F3F"/>
</g>
<defs>
<clipPath id="clip0_482_6172">
<rect width="26" height="26" fill="white" transform="translate(2 2)"/>
</clipPath>
</defs>
</svg>
