<svg width="30" height="30" viewBox="0 0 30 30" fill="none" xmlns="http://www.w3.org/2000/svg">
<rect width="30" height="30" rx="5" fill="#E6F5FF"/>
<g clip-path="url(#clip0_482_6126)">
<path d="M25.1509 14.4977H25.1617V8.10495C25.1617 7.48312 24.6525 6.9707 24.0242 6.9707H20.3083C19.68 6.9707 19.1708 7.48312 19.1708 8.10495V11.8576C19.1708 12.4903 19.68 12.9919 20.3083 12.9919H22.8108V11.5196H21.0558C20.8175 11.5196 20.6225 11.3344 20.6225 11.083V8.87954C20.6225 8.63795 20.8164 8.44295 21.0558 8.44295H23.255C23.4944 8.44295 23.6883 8.63795 23.6883 8.87954V13.734C23.6886 13.8493 23.6432 13.96 23.5619 14.0418C23.4807 14.1237 23.3703 14.17 23.255 14.1705H19.16V15.6439H24.0133C24.3161 15.6424 24.6059 15.5209 24.8192 15.3061C25.0324 15.0912 25.1517 14.8004 25.1509 14.4977ZM10.84 14.4977H10.8292V8.10495C10.8292 7.48312 10.32 6.9707 9.69168 6.9707H5.98668C5.35835 6.9707 4.84918 7.48312 4.84918 8.10495V11.8576C4.84918 12.4903 5.35835 12.9919 5.98668 12.9919H8.50002V11.5196H6.74502C6.50668 11.5196 6.31168 11.3344 6.31168 11.083V8.87954C6.31168 8.63795 6.5056 8.44295 6.74502 8.44295H8.94418C9.1836 8.44295 9.37752 8.63795 9.37752 8.87954V13.734C9.3778 13.8493 9.33235 13.96 9.25111 14.0418C9.16988 14.1237 9.0595 14.17 8.94418 14.1705H4.84918V15.6439H9.70252C10.0053 15.6424 10.2951 15.5209 10.5083 15.3061C10.7216 15.0912 10.8409 14.8004 10.84 14.4977ZM12.01 23.029H15.6825C16.3 23.029 16.7983 22.5274 16.7983 21.9055V18.207C16.7975 17.9117 16.6795 17.6287 16.4704 17.4201C16.2612 17.2116 15.9779 17.0945 15.6825 17.0945H12.01C11.3925 17.0945 10.8942 17.596 10.8942 18.207V21.9055C10.8942 22.5263 11.3925 23.029 12.01 23.029ZM12.335 18.9708C12.335 18.7303 12.53 18.5342 12.7683 18.5342H14.935C15.1733 18.5342 15.3683 18.7303 15.3683 18.9708H15.3575V21.1526C15.3578 21.2679 15.3123 21.3787 15.2311 21.4605C15.1499 21.5423 15.0395 21.5886 14.9242 21.5892V21.5784H12.7683C12.5289 21.5784 12.335 21.3834 12.335 21.1418V18.9708ZM6.29002 21.1526V18.9708C6.29002 18.7292 6.48393 18.5342 6.72335 18.5342H9.74585V17.0945H5.97585C5.35835 17.0945 4.86002 17.596 4.86002 18.207V21.9055C4.86002 22.5274 5.35835 23.029 5.96502 23.029H9.75668V21.5892H6.72335C6.60874 21.5864 6.49964 21.5394 6.41888 21.4581C6.33811 21.3767 6.29194 21.2673 6.29002 21.1526ZM13.1367 12.9919H16.8633C17.4808 12.9919 17.99 12.4903 17.99 11.8576V8.10495C17.9892 7.8057 17.8704 7.51883 17.6595 7.30652C17.4487 7.09421 17.1626 6.97355 16.8633 6.9707H13.1367C12.5083 6.9707 12.01 7.48312 12.01 8.10495V11.8576C12.01 12.4903 12.5083 12.9919 13.1367 12.9919ZM13.4725 8.89037C13.4725 8.64987 13.6567 8.45379 13.9058 8.45379H16.0833C16.3325 8.45379 16.5167 8.64987 16.5167 8.89037L16.5383 8.87954V11.083C16.5386 11.1402 16.5276 11.1968 16.506 11.2497C16.4844 11.3026 16.4525 11.3507 16.4123 11.3912C16.372 11.4318 16.3242 11.464 16.2714 11.486C16.2187 11.5081 16.1622 11.5195 16.105 11.5196H13.9058C13.6664 11.5196 13.4725 11.3246 13.4725 11.083V8.89037Z" fill="url(#paint0_linear_482_6126)"/>
<path d="M3.885 27.4577H26.115C27.1561 27.4577 28 26.6083 28 25.5597V4.44985C28 3.9266 27.7833 3.44668 27.4475 3.09677V3.1076C27.2728 2.92821 27.0639 2.78564 26.8332 2.68833C26.6025 2.59102 26.3546 2.54093 26.1042 2.54102H3.885C2.84392 2.54102 2 3.39143 2 4.43902V25.5597C2 26.6083 2.84392 27.4577 3.885 27.4577ZM2.54167 25.5488C2.54167 25.5478 2.54167 25.5478 2.54167 25.5488V4.43902C2.54167 3.69802 3.13858 3.09677 3.87417 3.09677H26.0933C26.8354 3.09677 27.4367 3.70235 27.4367 4.44985V25.5478H27.4475V25.5586C27.4475 26.2996 26.8506 26.9008 26.115 26.9008H3.87417C3.13858 26.9008 2.54167 26.2996 2.54167 25.5586V25.5488Z" fill="url(#paint1_linear_482_6126)"/>
<path d="M17.9467 23.0306H19.3875V18.9725C19.3875 18.7309 19.5814 18.5359 19.8208 18.5359H20.8283V23.0306H22.2692V18.9725C22.2692 18.7309 22.4631 18.5359 22.7025 18.5359H23.71V23.0306H25.14V17.0961H19.0625C18.445 17.0961 17.9467 17.5977 17.9467 18.2087V23.0306Z" fill="url(#paint2_linear_482_6126)"/>
</g>
<defs>
<linearGradient id="paint0_linear_482_6126" x1="15.0054" y1="6.9707" x2="15.0054" y2="23.029" gradientUnits="userSpaceOnUse">
<stop stop-color="#3C075D"/>
<stop offset="1" stop-color="#7E0FC3"/>
</linearGradient>
<linearGradient id="paint1_linear_482_6126" x1="15" y1="2.54102" x2="15" y2="27.4577" gradientUnits="userSpaceOnUse">
<stop stop-color="#3C075D"/>
<stop offset="1" stop-color="#7E0FC3"/>
</linearGradient>
<linearGradient id="paint2_linear_482_6126" x1="13.8056" y1="11.9492" x2="13.8056" y2="23.0306" gradientUnits="userSpaceOnUse">
<stop stop-color="#3C075D"/>
<stop offset="1" stop-color="#7E0FC3"/>
</linearGradient>
<clipPath id="clip0_482_6126">
<rect width="26" height="26" fill="white" transform="translate(2 2)"/>
</clipPath>
</defs>
</svg>
