<svg width="26" height="26" viewBox="0 0 26 26" fill="none" xmlns="http://www.w3.org/2000/svg">
<g clip-path="url(#clip0_482_5841)">
<path d="M23.1508 12.4977H23.1617V6.10495C23.1617 5.48312 22.6525 4.9707 22.0242 4.9707H18.3083C17.68 4.9707 17.1708 5.48312 17.1708 6.10495V9.85762C17.1708 10.4903 17.68 10.9919 18.3083 10.9919H20.8108V9.51962H19.0558C18.8175 9.51962 18.6225 9.33437 18.6225 9.08304V6.87954C18.6225 6.63795 18.8164 6.44295 19.0558 6.44295H21.255C21.4944 6.44295 21.6883 6.63795 21.6883 6.87954V11.734C21.6886 11.8493 21.6432 11.96 21.5619 12.0418C21.4807 12.1237 21.3703 12.17 21.255 12.1705H17.16V13.6439H22.0133C22.3161 13.6424 22.6059 13.5209 22.8191 13.3061C23.0324 13.0912 23.1517 12.8004 23.1508 12.4977ZM8.84 12.4977H8.82917V6.10495C8.82917 5.48312 8.32 4.9707 7.69167 4.9707H3.98667C3.35833 4.9707 2.84917 5.48312 2.84917 6.10495V9.85762C2.84917 10.4903 3.35833 10.9919 3.98667 10.9919H6.5V9.51962H4.745C4.50667 9.51962 4.31167 9.33437 4.31167 9.08304V6.87954C4.31167 6.63795 4.50558 6.44295 4.745 6.44295H6.94417C7.18358 6.44295 7.3775 6.63795 7.3775 6.87954V11.734C7.37779 11.8493 7.33233 11.96 7.2511 12.0418C7.16986 12.1237 7.05948 12.17 6.94417 12.1705H2.84917V13.6439H7.7025C8.00525 13.6424 8.29505 13.5209 8.50831 13.3061C8.72157 13.0912 8.84086 12.8004 8.84 12.4977ZM10.01 21.029H13.6825C14.3 21.029 14.7983 20.5274 14.7983 19.9055V16.207C14.7975 15.9117 14.6795 15.6287 14.4704 15.4201C14.2612 15.2116 13.9779 15.0945 13.6825 15.0945H10.01C9.3925 15.0945 8.89417 15.596 8.89417 16.207V19.9055C8.89417 20.5263 9.3925 21.029 10.01 21.029ZM10.335 16.9708C10.335 16.7303 10.53 16.5342 10.7683 16.5342H12.935C13.1733 16.5342 13.3683 16.7303 13.3683 16.9708H13.3575V19.1526C13.3578 19.2679 13.3123 19.3787 13.2311 19.4605C13.1499 19.5423 13.0395 19.5886 12.9242 19.5892V19.5784H10.7683C10.5289 19.5784 10.335 19.3834 10.335 19.1418V16.9708ZM4.29 19.1526V16.9708C4.29 16.7292 4.48392 16.5342 4.72333 16.5342H7.74583V15.0945H3.97583C3.35833 15.0945 2.86 15.596 2.86 16.207V19.9055C2.86 20.5274 3.35833 21.029 3.965 21.029H7.75667V19.5892H4.72333C4.60872 19.5864 4.49962 19.5394 4.41886 19.4581C4.3381 19.3767 4.29192 19.2673 4.29 19.1526ZM11.1367 10.9919H14.8633C15.4808 10.9919 15.99 10.4903 15.99 9.85762V6.10495C15.9892 5.8057 15.8704 5.51883 15.6595 5.30652C15.4486 5.09421 15.1626 4.97355 14.8633 4.9707H11.1367C10.5083 4.9707 10.01 5.48312 10.01 6.10495V9.85762C10.01 10.4903 10.5083 10.9919 11.1367 10.9919ZM11.4725 6.89037C11.4725 6.64987 11.6567 6.45379 11.9058 6.45379H14.0833C14.3325 6.45379 14.5167 6.64987 14.5167 6.89037L14.5383 6.87954V9.08304C14.5386 9.14018 14.5276 9.19681 14.506 9.2497C14.4844 9.30258 14.4525 9.35068 14.4122 9.39123C14.372 9.43179 14.3241 9.464 14.2714 9.48603C14.2187 9.50806 14.1621 9.51948 14.105 9.51962H11.9058C11.6664 9.51962 11.4725 9.32462 11.4725 9.08304V6.89037Z" fill="url(#paint0_linear_482_5841)"/>
<path d="M1.885 25.4577H24.115C25.1561 25.4577 26 24.6083 26 23.5597V2.44985C26 1.9266 25.7833 1.44668 25.4475 1.09677V1.1076C25.2728 0.928207 25.0639 0.785644 24.8332 0.68833C24.6025 0.591016 24.3546 0.540925 24.1042 0.541016H1.885C0.843917 0.541016 0 1.39143 0 2.43902V23.5597C0 24.6083 0.843917 25.4577 1.885 25.4577ZM0.541667 23.5488C0.541667 23.5478 0.541667 23.5478 0.541667 23.5488V2.43902C0.541667 1.69802 1.13858 1.09677 1.87417 1.09677H24.0933C24.8354 1.09677 25.4367 1.70235 25.4367 2.44985V23.5478H25.4475V23.5586C25.4475 24.2996 24.8506 24.9008 24.115 24.9008H1.87417C1.13858 24.9008 0.541667 24.2996 0.541667 23.5586V23.5488Z" fill="url(#paint1_linear_482_5841)"/>
<path d="M15.9467 21.0306H17.3875V16.9725C17.3875 16.7309 17.5814 16.5359 17.8208 16.5359H18.8283V21.0306H20.2692V16.9725C20.2692 16.7309 20.4631 16.5359 20.7025 16.5359H21.71V21.0306H23.14V15.0961H17.0625C16.445 15.0961 15.9467 15.5977 15.9467 16.2087V21.0306Z" fill="url(#paint2_linear_482_5841)"/>
</g>
<defs>
<linearGradient id="paint0_linear_482_5841" x1="13.0054" y1="4.9707" x2="13.0054" y2="21.029" gradientUnits="userSpaceOnUse">
<stop stop-color="#3C075D"/>
<stop offset="1" stop-color="#7E0FC3"/>
</linearGradient>
<linearGradient id="paint1_linear_482_5841" x1="13" y1="0.541016" x2="13" y2="25.4577" gradientUnits="userSpaceOnUse">
<stop stop-color="#3C075D"/>
<stop offset="1" stop-color="#7E0FC3"/>
</linearGradient>
<linearGradient id="paint2_linear_482_5841" x1="11.8056" y1="9.94922" x2="11.8056" y2="21.0306" gradientUnits="userSpaceOnUse">
<stop stop-color="#3C075D"/>
<stop offset="1" stop-color="#7E0FC3"/>
</linearGradient>
<clipPath id="clip0_482_5841">
<rect width="26" height="26" fill="white"/>
</clipPath>
</defs>
</svg>
