<svg width="26" height="26" viewBox="0 0 26 26" fill="none" xmlns="http://www.w3.org/2000/svg">
<g clip-path="url(#clip0_482_5785)">
<path d="M0 13C0 5.82021 5.82021 0 13 0C20.1798 0 26 5.82021 26 13C26 20.1798 20.1798 26 13 26C5.82021 26 0 20.1798 0 13Z" fill="#E60012"/>
<path fill-rule="evenodd" clip-rule="evenodd" d="M6.62187 9.06258C6.95933 7.76746 8.0302 6.78217 9.36162 6.54383C9.53604 6.5135 9.93145 6.50592 11.2488 6.50267C12.8705 6.49996 12.9177 6.50267 12.9453 6.5525C12.9648 6.5915 12.9729 8.70563 12.9729 13.1944C12.9729 19.2492 12.9702 19.7832 12.9285 19.825C12.8873 19.8667 12.7265 19.8694 11.1767 19.858C9.67958 19.8499 9.4472 19.8418 9.26466 19.8C7.86445 19.4734 6.87916 18.4854 6.57203 17.0993C6.51678 16.842 6.51408 16.764 6.50541 13.4322C6.49187 9.80413 6.49999 9.53004 6.62187 9.06258ZM11.8663 18.7925V7.57896L10.7949 7.58221C9.61079 7.58492 9.44178 7.60117 9.0767 7.74796C8.71561 7.89417 8.39598 8.12689 8.14596 8.42565C7.89594 8.72441 7.72319 9.08004 7.64291 9.46125C7.58495 9.73533 7.58495 16.6205 7.64562 16.9C7.83087 17.7937 8.49224 18.48 9.38383 18.7097C9.59128 18.7622 9.70178 18.7682 10.7396 18.779L11.8663 18.7925Z" fill="#E6F5FF"/>
<path d="M9.59942 9.26998C9.42501 9.30302 9.15959 9.43627 9.01821 9.56085C8.72788 9.81273 8.5838 10.1697 8.60601 10.59C8.61684 10.8089 8.63092 10.8668 8.71976 11.0439C8.84976 11.3126 9.04584 11.5087 9.31451 11.6419C9.49976 11.7329 9.54742 11.7443 9.78792 11.7524C10.0062 11.7606 10.0837 11.7524 10.2305 11.7026C10.8312 11.5006 11.1935 10.9166 11.0912 10.3186C10.972 9.60744 10.2971 9.13185 9.59942 9.26998Z" fill="#E6F5FF"/>
<path fill-rule="evenodd" clip-rule="evenodd" d="M14.3011 13.1858C14.3011 9.52737 14.3098 6.52763 14.3206 6.5195C14.3293 6.50867 14.8823 6.5 15.5469 6.5C16.5095 6.5 16.809 6.50812 17.0024 6.54171C18.447 6.79087 19.5455 7.878 19.8196 9.32046C19.858 9.52196 19.864 9.99537 19.864 13.1695C19.864 16.5604 19.8678 16.9596 19.7611 17.3257C19.7427 17.3891 19.7205 17.4514 19.695 17.5283C19.6479 17.6637 19.5569 17.8826 19.4875 18.0126C18.948 19.0282 17.9573 19.7118 16.8334 19.8391C16.568 19.8662 14.4203 19.8775 14.3455 19.8499C14.3043 19.8337 14.3011 19.2216 14.3011 13.1858ZM18.2065 13.41C18.1338 13.2011 18.011 13.0132 17.8489 12.8626C17.6868 12.7121 17.4902 12.6036 17.2765 12.5466C16.5848 12.3668 15.8649 12.7655 15.6569 13.4436C15.5881 13.6592 15.5854 14.0135 15.646 14.2236C15.8481 14.9099 16.5842 15.3281 17.2765 15.1482C17.7028 15.0345 18.0348 14.7274 18.2033 14.2902C18.2948 14.0519 18.298 13.6706 18.2065 13.41Z" fill="#E6F5FF"/>
</g>
<defs>
<clipPath id="clip0_482_5785">
<rect width="26" height="26" fill="white"/>
</clipPath>
</defs>
</svg>
