<svg width="26" height="26" viewBox="0 0 26 26" fill="none" xmlns="http://www.w3.org/2000/svg">
<g clip-path="url(#clip0_482_5807)">
<path d="M0.492929 17.5591C-0.440905 18.2492 -0.0985713 19.4528 1.9511 20.0302C4.32143 20.8102 6.56826 20.9012 8.89851 20.4808V18.2795L6.80335 19.0433C6.03201 19.3228 4.89343 19.3813 4.26726 19.1743C3.64001 18.9674 3.75701 18.5753 4.52943 18.3001L8.89851 16.7401V14.2831L2.82751 16.4389C2.82643 16.4368 1.35526 16.9188 0.492929 17.5591ZM15.5545 4.57427C14.1473 4.10085 11.5234 3.31218 9.72293 2.97852V21.6768L13.9566 23.0202V7.33352C13.9566 6.59902 14.287 6.10718 14.8146 6.27835C15.5047 6.47227 15.6412 7.14935 15.6412 7.88385V14.1509C18.2813 15.4228 20.358 14.1466 20.358 10.7872C20.358 7.33785 19.1436 5.80493 15.5545 4.57427Z" fill="#003791"/>
<path d="M24.0554 16.1181C22.282 15.4453 20.0243 15.2157 18.1783 15.4193C16.8881 15.5634 15.808 15.8256 14.7615 16.1777V18.7213L19.2985 17.1202C20.0698 16.8407 21.2073 16.7822 21.8346 16.9891C22.4662 17.196 22.3448 17.5882 21.5724 17.8633L14.7615 20.2889V22.7372L24.0197 19.419C24.0197 19.419 25.2612 18.964 25.7714 18.3237C26.2763 17.6835 26.0498 16.7497 24.0554 16.1181Z" fill="#003791"/>
</g>
<defs>
<clipPath id="clip0_482_5807">
<rect width="26" height="26" fill="white"/>
</clipPath>
</defs>
</svg>
