<svg width="30" height="30" viewBox="0 0 30 30" fill="none" xmlns="http://www.w3.org/2000/svg">
<rect width="30" height="30" rx="5" fill="#E6F5FF"/>
<path d="M15.3615 2C8.31796 2 2.54793 7.42158 2 14.311L9.18628 17.2771C9.81378 16.8474 10.559 16.6176 11.3222 16.6186C11.3935 16.6186 11.464 16.6205 11.5334 16.6244L14.7296 11.9995V11.9347C14.7296 9.15185 16.9977 6.8872 19.7857 6.8872C22.5737 6.8872 24.8418 9.15185 24.8418 11.9347C24.8418 14.7175 22.5737 16.9831 19.7857 16.9831C19.7471 16.9831 19.7094 16.9822 19.6709 16.9812L15.1125 20.2269C15.1155 20.2871 15.1173 20.3472 15.1173 20.4064C15.1173 22.4963 13.4147 24.1961 11.3222 24.1961C9.48535 24.1961 7.94852 22.8867 7.60125 21.1537L2.46114 19.0321C4.05297 24.6503 9.22382 28.7692 15.3615 28.7692C22.7668 28.7692 28.7692 22.776 28.7692 15.3846C28.7692 7.99237 22.7668 2 15.3615 2ZM10.4022 22.3089L8.75536 21.6295C9.04679 22.2364 9.55227 22.7441 10.2228 23.0228C11.6717 23.6259 13.3426 22.9398 13.9466 21.492C14.239 20.7959 14.2407 20.0135 13.9514 19.3161C13.662 18.6137 13.115 18.0659 12.4136 17.7739C11.7162 17.4848 10.9695 17.4952 10.3134 17.7425L12.0152 18.4448C13.0841 18.8896 13.5896 20.1149 13.1439 21.1819C12.6992 22.2488 11.4711 22.7537 10.4022 22.3089ZM23.1549 11.9347C23.1549 10.0805 21.6432 8.57082 19.7861 8.57082C17.928 8.57082 16.4163 10.0805 16.4163 11.9347C16.4163 13.789 17.928 15.2978 19.7861 15.2978C21.6432 15.2978 23.1549 13.789 23.1549 11.9347ZM17.2604 11.929C17.2604 10.5338 18.394 9.403 19.791 9.403C21.1888 9.403 22.3223 10.5338 22.3223 11.929C22.3223 13.3243 21.1888 14.4552 19.7909 14.4552C18.394 14.4552 17.2603 13.3243 17.2603 11.9291L17.2604 11.929Z" fill="#171A21"/>
</svg>
