<svg width="30" height="30" viewBox="0 0 30 30" fill="none" xmlns="http://www.w3.org/2000/svg">
<rect width="30" height="30" rx="5" fill="#E6F5FF"/>
<path d="M10.5914 4.29767C11.9613 4.83562 13.2889 5.54909 14.5353 6.41697C14.6716 6.51205 14.8338 6.56303 15 6.56303C15.1662 6.56303 15.3284 6.51205 15.4648 6.41697C16.6923 5.55872 18.0159 4.84692 19.4086 4.29604C19.5609 4.23588 19.6914 4.13111 19.7832 3.99547C19.8749 3.85983 19.9235 3.69965 19.9226 3.53591C19.9217 3.37216 19.8714 3.21251 19.7782 3.07786C19.6851 2.94321 19.5534 2.83985 19.4005 2.78133C16.6608 1.73956 13.3376 1.73956 10.5995 2.78133C10.4461 2.83957 10.3139 2.9429 10.2203 3.07774C10.1268 3.21257 10.0762 3.37259 10.0753 3.53671C10.0744 3.70083 10.1233 3.86138 10.2154 3.99721C10.3075 4.13304 10.4386 4.23779 10.5914 4.29767Z" fill="#107C10"/>
<path d="M22.3661 4.30136C22.2398 4.2143 22.0913 4.16487 21.938 4.15883C21.7847 4.15279 21.6328 4.19038 21.5 4.26723C19.9706 5.14998 18.509 6.14519 17.1271 7.24465C17.0358 7.31658 16.9611 7.40734 16.908 7.51075C16.8549 7.61415 16.8247 7.72778 16.8195 7.8439C16.8143 7.96002 16.8341 8.07591 16.8776 8.18368C16.9212 8.29145 16.9874 8.38857 17.0719 8.46844C19.9449 11.207 23.9294 19.5996 24.841 23.4628C22.8585 20.1116 18.4434 12.2243 15.5525 9.52809C15.4021 9.3878 15.2041 9.30979 14.9984 9.30979C14.7927 9.30979 14.5947 9.3878 14.4442 9.52809C11.5501 12.226 7.148 20.1197 5.1655 23.4726C6.07713 19.611 10.0503 11.2086 12.9249 8.46844C13.0088 8.38839 13.0746 8.29133 13.118 8.18377C13.1613 8.07621 13.1812 7.96062 13.1763 7.84476C13.1713 7.72889 13.1417 7.61541 13.0894 7.51191C13.0371 7.40842 12.9633 7.3173 12.8729 7.24465C11.4907 6.14556 10.0291 5.15036 8.5 4.26723C8.36665 4.19117 8.21464 4.15405 8.06124 4.16008C7.90785 4.16612 7.75922 4.21506 7.63225 4.30136C5.89723 5.4947 4.4781 7.09181 3.49698 8.95524C2.51586 10.8187 2.00213 12.8926 2.00001 14.9986C1.99725 18.1132 3.12232 21.1234 5.16713 23.4726C7.61275 26.3492 11.1959 28.0004 15 28.0004C18.8041 28.0004 22.3872 26.3492 24.8426 23.4628C26.8825 21.1153 28.004 18.1088 28 14.9986C27.998 12.8924 27.4841 10.8183 26.5027 8.95479C25.5212 7.09131 24.1016 5.49432 22.3661 4.30136Z" fill="#107C10"/>
</svg>
